<svg id="Layer_1" data-name="Layer 1" xmlns="http://www.w3.org/2000/svg" xmlns:xlink="http://www.w3.org/1999/xlink" viewBox="0 0 754.1 326.6"><defs><style>.cls-1{fill:#336698;}.cls-1,.cls-10,.cls-11,.cls-12,.cls-13,.cls-3,.cls-4,.cls-5,.cls-6,.cls-7,.cls-8,.cls-9{fill-rule:evenodd;}.cls-2{fill:#4d4d4d;}.cls-3{fill:url(#GradientFill_1);}.cls-4{fill:url(#GradientFill_2);}.cls-5{fill:url(#GradientFill_3);}.cls-6{fill:url(#GradientFill_4);}.cls-7{fill:url(#GradientFill_4-2);}.cls-8{fill:url(#GradientFill_5);}.cls-9{fill:url(#GradientFill_6);}.cls-10{fill:url(#GradientFill_7);}.cls-11{fill:url(#GradientFill_8);}.cls-12{fill:url(#GradientFill_2-2);}.cls-13{fill:url(#GradientFill_9);}</style><linearGradient id="GradientFill_1" x1="273.68" y1="415.47" x2="232.65" y2="451.06" gradientUnits="userSpaceOnUse"><stop offset="0" stop-color="#eba933"/><stop offset="1" stop-color="#9e6d29"/></linearGradient><linearGradient id="GradientFill_2" x1="174.45" y1="320" x2="155.7" y2="235.97" gradientUnits="userSpaceOnUse"><stop offset="0" stop-color="#eba933"/><stop offset="1" stop-color="#785623"/></linearGradient><radialGradient id="GradientFill_3" cx="25.85" cy="273.11" r="175.62" gradientTransform="matrix(0.95, -0.32, 0.13, 0.39, -34.28, 175.55)" gradientUnits="userSpaceOnUse"><stop offset="0" stop-color="#fff"/><stop offset="0.18" stop-color="#fff"/><stop offset="0.65" stop-color="#c4d7e5"/><stop offset="1" stop-color="#4f4e4f"/></radialGradient><radialGradient id="GradientFill_4" cx="37.49" cy="281.92" r="166.03" gradientTransform="translate(-43.4 159.2) rotate(-18.6) scale(1 0.5)" gradientUnits="userSpaceOnUse"><stop offset="0" stop-color="#fff"/><stop offset="0.18" stop-color="#fff"/><stop offset="0.65" stop-color="#f26122"/><stop offset="1" stop-color="#ed1c24"/></radialGradient><radialGradient id="GradientFill_4-2" cx="22.08" cy="296.24" r="186.58" gradientTransform="translate(-60.3 120.8) rotate(-18.6) scale(1 0.65)" xlink:href="#GradientFill_4"/><radialGradient id="GradientFill_5" cx="27.11" cy="308.29" r="180.68" gradientTransform="translate(-80.4 73.9) rotate(-18.6) scale(1 0.83)" gradientUnits="userSpaceOnUse"><stop offset="0" stop-color="#fff"/><stop offset="0.18" stop-color="#fff"/><stop offset="0.65" stop-color="#ca6028"/><stop offset="1" stop-color="#ed1c24"/></radialGradient><radialGradient id="GradientFill_6" cx="55.59" cy="319.34" r="147.98" gradientTransform="matrix(0.95, -0.32, 0.31, 0.93, -97.18, 39.82)" gradientUnits="userSpaceOnUse"><stop offset="0" stop-color="#fff"/><stop offset="0.18" stop-color="#fff"/><stop offset="0.65" stop-color="#20c4f4"/><stop offset="1" stop-color="#2d4ea2"/></radialGradient><radialGradient id="GradientFill_7" cx="85.28" cy="336.21" r="131.59" gradientTransform="translate(-155.1 507.1) rotate(-108.6) scale(1 0.84)" gradientUnits="userSpaceOnUse"><stop offset="0" stop-color="#fff"/><stop offset="0.18" stop-color="#fff"/><stop offset="0.44" stop-color="#20c4f4"/><stop offset="1" stop-color="#213b81"/></radialGradient><linearGradient id="GradientFill_8" x1="172.09" y1="371.84" x2="129.25" y2="427" gradientUnits="userSpaceOnUse"><stop offset="0" stop-color="#185f96"/><stop offset="1" stop-color="#fff"/></linearGradient><linearGradient id="GradientFill_2-2" x1="39.09" y1="235.95" x2="2" y2="305.29" xlink:href="#GradientFill_2"/><linearGradient id="GradientFill_9" x1="98.92" y1="269.57" x2="188.47" y2="218.32" gradientUnits="userSpaceOnUse"><stop offset="0" stop-color="#eba933"/><stop offset="1" stop-color="#d6d1d1"/></linearGradient></defs><title>logo</title><path class="cls-1" d="M217.8,215.9a5.2,5.2,0,0,1,1.8-4,5.7,5.7,0,0,1,4.3-1.7H300a18.5,18.5,0,0,1,6.7,1.2,19.8,19.8,0,0,1,5.4,3.4,16.3,16.3,0,0,1,3.7,5,14.4,14.4,0,0,1,1.3,6.2,14.1,14.1,0,0,1-1.3,6.2,15.2,15.2,0,0,1-3.7,5,17.7,17.7,0,0,1-5.4,3.4,18.6,18.6,0,0,1-6.7,1.3H233.9a4.3,4.3,0,0,0-3.9,4.4v10.1a5.2,5.2,0,0,1-1.8,4,6,6,0,0,1-4.3,1.7,5.7,5.7,0,0,1-4.3-1.7,5.2,5.2,0,0,1-1.8-4V245a13.9,13.9,0,0,1,1.2-5.7,12.3,12.3,0,0,1,3.2-4.6,15.8,15.8,0,0,1,10.9-4.3h67.4a5.2,5.2,0,0,0,3.4-1.2,4.2,4.2,0,0,0,1.4-3.2,4.3,4.3,0,0,0-1.4-3.1,5.3,5.3,0,0,0-3.4-1.3H223.9a6,6,0,0,1-4.3-1.6,5.5,5.5,0,0,1-1.8-4.1Zm211.5,40.5a5.2,5.2,0,0,1-1.8,4,6.3,6.3,0,0,1-8.6,0,5.2,5.2,0,0,1-1.8-4V241.9H342v14.5a5.4,5.4,0,0,1-1.7,4,6,6,0,0,1-4.4,1.7,5.9,5.9,0,0,1-4.3-1.7,5.2,5.2,0,0,1-1.8-4V215.9a5.2,5.2,0,0,1,1.8-4,5.9,5.9,0,0,1,4.3-1.7,6,6,0,0,1,4.4,1.7,5.4,5.4,0,0,1,1.7,4v14.5h75.1V215.9a5.2,5.2,0,0,1,1.8-4,6.3,6.3,0,0,1,8.6,0,5.2,5.2,0,0,1,1.8,4v40.5Zm24.9-20.3a21.7,21.7,0,0,0,.6,4.8,14.2,14.2,0,0,0,2.1,4.7,13.3,13.3,0,0,0,4.4,3.6,14.7,14.7,0,0,0,7.1,1.5H519a14.9,14.9,0,0,0,7.1-1.5,13.3,13.3,0,0,0,4.4-3.6,12.4,12.4,0,0,0,2.1-4.7,21.7,21.7,0,0,0,.6-4.8V216a5.2,5.2,0,0,1,1.8-4,6.1,6.1,0,0,1,4.3-1.7,6,6,0,0,1,4.3,1.7,5.2,5.2,0,0,1,1.8,4v20.1a28.3,28.3,0,0,1-6.2,17.5,24.4,24.4,0,0,1-7.4,6.1,19.8,19.8,0,0,1-9.8,2.4H464.1a19.4,19.4,0,0,1-9.3-2.7,23.7,23.7,0,0,1-6.9-6.1,30.8,30.8,0,0,1-4.4-8.2,28.3,28.3,0,0,1-1.5-9V216a5.2,5.2,0,0,1,1.8-4,6.3,6.3,0,0,1,8.6,0,5.2,5.2,0,0,1,1.8,4v20.1ZM575,241.9a17.6,17.6,0,0,1-6.6-1.3,17.2,17.2,0,0,1-5.3-3.4,13.6,13.6,0,0,1-3.6-5,14.1,14.1,0,0,1-1.4-6.2,15.7,15.7,0,0,1,5-11.2,19.3,19.3,0,0,1,5.3-3.4,17.6,17.6,0,0,1,6.6-1.2h77.1a5.6,5.6,0,0,1,4.3,1.7,5.2,5.2,0,0,1,1.8,4,5.5,5.5,0,0,1-1.8,4.1,5.9,5.9,0,0,1-4.3,1.6H574.8a4.8,4.8,0,0,0-3.4,1.3,4,4,0,0,0,0,6.2,4.8,4.8,0,0,0,3.4,1.3H645a18.6,18.6,0,0,1,6.7,1.3,17,17,0,0,1,5.4,3.4,16.4,16.4,0,0,1,3.6,5,15.1,15.1,0,0,1,1.3,6.3,14.4,14.4,0,0,1-1.3,6.2,16.4,16.4,0,0,1-3.6,5,17.8,17.8,0,0,1-12.1,4.5H568a5.7,5.7,0,0,1-4.3-1.7,5.2,5.2,0,0,1-1.8-4,5.5,5.5,0,0,1,1.8-4.1,6,6,0,0,1,4.3-1.6h77.5a4.4,4.4,0,0,0,3.3-1.3,3.9,3.9,0,0,0,1.4-3,4.2,4.2,0,0,0-1.4-3.2,4.4,4.4,0,0,0-3.3-1.3ZM685.5,260a5.9,5.9,0,0,1-4.7,2.1,5.7,5.7,0,0,1-4.3-1.7,5.4,5.4,0,0,1-.5-7.5L706.9,214a16.3,16.3,0,0,1,5.7-4.5,18,18,0,0,1,7.6-1.7,16.1,16.1,0,0,1,7.2,1.6,14.1,14.1,0,0,1,5.6,4.2l30.9,38.7a12.7,12.7,0,0,1,1.3,1.9,5.4,5.4,0,0,1,.5,2.2,5.2,5.2,0,0,1-1.8,4,5.7,5.7,0,0,1-4.3,1.7,5.5,5.5,0,0,1-4.8-2.3l-29.6-37-2.3-2.1a3.9,3.9,0,0,0-5.4,0,20.6,20.6,0,0,0-2.1,2.1ZM240.9,312.6a3.4,3.4,0,0,1,1.1-2.4,4.8,4.8,0,0,1,2.9-.9h32.3a12.3,12.3,0,0,1,3.9.6,11.9,11.9,0,0,1,3.3,1.9,7.1,7.1,0,0,1,2.1,2.7,7.3,7.3,0,0,1,.8,3.3v1.6a8,8,0,0,1-.8,3.3,7.9,7.9,0,0,1-2.1,2.7,9.6,9.6,0,0,1-3.3,1.8,10,10,0,0,1-3.9.7H233.3a13.8,13.8,0,0,1-6.2-1.4,14.7,14.7,0,0,1-4.6-3.6,18.6,18.6,0,0,1-2.9-4.9,17.7,17.7,0,0,1-1-5.4,14.8,14.8,0,0,1,1.1-5.3,14.1,14.1,0,0,1,3.1-4.9,16.2,16.2,0,0,1,4.8-3.7,15.1,15.1,0,0,1,6.5-1.4h49.1a4.6,4.6,0,0,1,2.9,1,3,3,0,0,1,0,4.8,4.6,4.6,0,0,1-2.9,1H236a12.6,12.6,0,0,0-4.8.8,7.8,7.8,0,0,0-2.8,2.2,7.6,7.6,0,0,0-1.5,2.8,14.7,14.7,0,0,0-.4,2.7,14.5,14.5,0,0,0,.4,2.8,8.5,8.5,0,0,0,1.5,2.8,8.9,8.9,0,0,0,2.8,2.1,10.8,10.8,0,0,0,4.8.9h40.8a2.5,2.5,0,0,0,1.8-.8,2.2,2.2,0,0,0,.8-1.8,2.4,2.4,0,0,0-.7-1.8,2.1,2.1,0,0,0-1.9-.8H244.9a4.3,4.3,0,0,1-2.9-1,3,3,0,0,1-1.1-2.4Zm54.8-11.9a3.1,3.1,0,0,1,1.2-2.4,4.6,4.6,0,0,1,2.9-1h59.7a4.3,4.3,0,0,1,2.8,1,3,3,0,0,1,0,4.8,4.3,4.3,0,0,1-2.8,1H299.8a4.6,4.6,0,0,1-2.9-1,3.1,3.1,0,0,1-1.2-2.4ZM306,327.9a9.4,9.4,0,0,1-3.7-.7,8.8,8.8,0,0,1-3.3-1.8,11.3,11.3,0,0,1-2.4-2.9,7.9,7.9,0,0,1-.9-3.8v-6.3a2.5,2.5,0,0,1,1.3-2.5,10.4,10.4,0,0,1,4.1-.6h56.5a4.6,4.6,0,0,1,2.9.9,3.1,3.1,0,0,1,1.2,2.4,2.9,2.9,0,0,1-1.2,2.4,4.1,4.1,0,0,1-2.9,1H303.8v3.4a1.6,1.6,0,0,0,.7,1.3,3.6,3.6,0,0,0,1.9.5h53.1a3.9,3.9,0,0,1,2.8,1,2.8,2.8,0,0,1,1.2,2.3,2.9,2.9,0,0,1-1.2,2.4,3.9,3.9,0,0,1-2.8,1Zm123.3-27.2a3.1,3.1,0,0,1,1.2-2.4,4.6,4.6,0,0,1,2.9-1,4.5,4.5,0,0,1,2.8,1,3.1,3.1,0,0,1,1.2,2.4v20.4a6.2,6.2,0,0,1-2.3,4.8,8.4,8.4,0,0,1-5.8,2,9.1,9.1,0,0,1-2.3-.3l-2.1-.7-38.5-19.7-2.7-1.2a5.1,5.1,0,0,0-1.7-.5,1.5,1.5,0,0,0-1.6,1.4,12.9,12.9,0,0,0-.4,3.8v13.8a3,3,0,0,1-1.1,2.4,4.7,4.7,0,0,1-5.8,0,2.9,2.9,0,0,1-1.2-2.4V304.1a6,6,0,0,1,2.4-4.8,8.4,8.4,0,0,1,5.7-2,9.9,9.9,0,0,1,2.4.3l2,.8L423,318l2.7,1.3a4.1,4.1,0,0,0,1.7.4,1.5,1.5,0,0,0,1.6-1.3,19.2,19.2,0,0,0,.3-3.9V300.7Zm67.8,20.5a11.4,11.4,0,0,0,4.8-.9,9.4,9.4,0,0,0,2.9-2.1,8.2,8.2,0,0,0,1.4-2.8,14.5,14.5,0,0,0,.4-2.8,14.7,14.7,0,0,0-.4-2.7,7.4,7.4,0,0,0-1.4-2.8,8.2,8.2,0,0,0-2.9-2.2,13.4,13.4,0,0,0-4.8-.8h-34a13,13,0,0,0-4.8.8,7.8,7.8,0,0,0-2.8,2.2,7.6,7.6,0,0,0-1.5,2.8,13.9,13.9,0,0,0-.3,2.7,14.1,14.1,0,0,0,.3,2.8,8.5,8.5,0,0,0,1.5,2.8,8.9,8.9,0,0,0,2.8,2.1,11.1,11.1,0,0,0,4.8.9Zm17.3-8.6a14.7,14.7,0,0,1-1,5.4,16.9,16.9,0,0,1-3.1,4.9,16,16,0,0,1-4.9,3.6,15.1,15.1,0,0,1-6.5,1.4H460.5a13.9,13.9,0,0,1-6.2-1.6,14.7,14.7,0,0,1-4.6-3.6,15.5,15.5,0,0,1-3.9-10.1,14.8,14.8,0,0,1,1.1-5.3,14.1,14.1,0,0,1,3.1-4.9,16.2,16.2,0,0,1,4.8-3.7,15.5,15.5,0,0,1,6.5-1.4h38.4a14.9,14.9,0,0,1,6.2,1.6,18.4,18.4,0,0,1,4.6,3.6,16.3,16.3,0,0,1,2.9,4.9,13.7,13.7,0,0,1,1,5.2Zm79.5,11.9a3,3,0,0,1-1.1,2.4,4.7,4.7,0,0,1-5.8,0,2.9,2.9,0,0,1-1.2-2.4V309.3c0-2-.1-2.9-.4-2.9a8.2,8.2,0,0,0-2.3,1.9l-18.6,17.5a7.2,7.2,0,0,1-2.7,1.6,12.1,12.1,0,0,1-3.4.5,12.9,12.9,0,0,1-3.5-.5,9.2,9.2,0,0,1-2.7-1.6l-18.5-17.5c-1.3-1.3-2.1-1.9-2.4-1.9s-.4.9-.4,2.9v15.2a2.9,2.9,0,0,1-1.2,2.4,3.9,3.9,0,0,1-2.8,1,4.3,4.3,0,0,1-2.9-1,2.9,2.9,0,0,1-1.2-2.4V304.1a6.6,6.6,0,0,1,2-4.8,7.1,7.1,0,0,1,5.3-2,7.4,7.4,0,0,1,3.6.9,11.5,11.5,0,0,1,2.9,2L556,318.6l1.1.7a2,2,0,0,0,1.3.4,2.2,2.2,0,0,0,1.3-.4l1-.7L580,300.2h.1a8.6,8.6,0,0,1,2.9-2.1,8.7,8.7,0,0,1,3.7-.8,7.2,7.2,0,0,1,5.3,2,6.5,6.5,0,0,1,1.9,4.8v20.4Zm16.5,0a2.8,2.8,0,0,1-1.1,2.4,4.7,4.7,0,0,1-5.8,0,3,3,0,0,1-1.1-2.4V300.7a3.4,3.4,0,0,1,1.1-2.4,4.7,4.7,0,0,1,5.8,0,3,3,0,0,1,1.1,2.4v23.8Zm8.5-11.9a14.6,14.6,0,0,1,1-5.3,15.7,15.7,0,0,1,3.1-4.9,16.7,16.7,0,0,1,4.9-3.7,15.1,15.1,0,0,1,6.5-1.4h49.1a4.8,4.8,0,0,1,2.9,1,3.2,3.2,0,0,1,0,4.8,4.8,4.8,0,0,1-2.9,1H636.1a12.4,12.4,0,0,0-4.7.8,8.2,8.2,0,0,0-2.9,2.2,6.2,6.2,0,0,0-1.4,2.8,9.3,9.3,0,0,0-.4,2.7,9.5,9.5,0,0,0,.4,2.8,6.7,6.7,0,0,0,1.4,2.8,9.4,9.4,0,0,0,2.9,2.1,10.6,10.6,0,0,0,4.7.9h47.4a4.3,4.3,0,0,1,2.9,1,3,3,0,0,1,1.1,2.3,3,3,0,0,1-1.1,2.4,4.3,4.3,0,0,1-2.9,1h-50a13.4,13.4,0,0,1-6.1-1.4,14.7,14.7,0,0,1-4.6-3.6,16.3,16.3,0,0,1-2.9-4.9,15.1,15.1,0,0,1-1-5.4Zm88.3,3.4a15,15,0,0,1-4.4-.7,13.9,13.9,0,0,1-3.6-2,11.3,11.3,0,0,1-2.4-3,8.6,8.6,0,0,1-.8-3.6,9.1,9.1,0,0,1,.8-3.7,9.6,9.6,0,0,1,2.4-2.9,11.5,11.5,0,0,1,3.6-2,12.3,12.3,0,0,1,4.4-.8h51.1a4.8,4.8,0,0,1,2.9,1,3.2,3.2,0,0,1,0,4.8,4.8,4.8,0,0,1-2.9,1H707a3.2,3.2,0,0,0-2.2.7,2.2,2.2,0,0,0-1,1.9,2.1,2.1,0,0,0,1,1.8,3.3,3.3,0,0,0,2.2.8h46.6a12.7,12.7,0,0,1,4.4.7,12.5,12.5,0,0,1,3.6,2,8.9,8.9,0,0,1,2.4,3,7.5,7.5,0,0,1,.9,3.7,7.4,7.4,0,0,1-.9,3.6,9.6,9.6,0,0,1-2.4,2.9,10.5,10.5,0,0,1-3.6,2,12.7,12.7,0,0,1-4.4.7H702.5a3.9,3.9,0,0,1-2.8-1,2.9,2.9,0,0,1-1.2-2.4,2.8,2.8,0,0,1,1.2-2.3,3.9,3.9,0,0,1,2.8-1h51.4a3.3,3.3,0,0,0,2.2-.8,2,2,0,0,0,.9-1.7,2.3,2.3,0,0,0-.9-1.9,2.9,2.9,0,0,0-2.2-.8Zm13-59.6a9.5,9.5,0,1,0-9.5-9.5A9.5,9.5,0,0,0,720.2,256.4Z" transform="translate(-12.1 -120.4)"/><path class="cls-2" d="M365.1,405.9l2.5-28.6.7.2h1.4l.7-.2-2.5,28.6-.7-.2h-1.4Zm5.7,0,1.8-20.2H375l-.2,3.1a17.2,17.2,0,0,1,1.4-2.5,2.4,2.4,0,0,1,1.7-1,2,2,0,0,1,1.9,1.4,10.9,10.9,0,0,1,.5,3.7v1.1a15.9,15.9,0,0,0-.2,2.2l-1,12.2-.7-.2h-1.2l-.7.2.9-10.4c.1-1.5.2-2.7.2-3.6a6.7,6.7,0,0,0-.3-2.3c-.1-.6-.4-.8-.8-.8s-1.3.9-1.7,2.7-.4,2.6-.6,4.7l-.8,9.7-.8-.2h-1.1Zm10.5,0,1.8-20.2h2.5l-.3,3.1a10.9,10.9,0,0,1,1.5-2.5,2.1,2.1,0,0,1,1.7-1,2,2,0,0,1,1.8,1.4,10.9,10.9,0,0,1,.5,3.7v1.1c0,.2-.1,1-.2,2.2l-1,12.2-.6-.2h-1.3l-.7.2.9-10.4a25.7,25.7,0,0,0,.2-3.6,12.1,12.1,0,0,0-.2-2.3c-.2-.6-.5-.8-.9-.8s-1.3.9-1.7,2.7-.4,2.6-.6,4.7l-.8,9.7-.8-.2H382Zm14.6.3a3.1,3.1,0,0,1-2.8-2,13.9,13.9,0,0,1-1-5.5v-.9a13.2,13.2,0,0,0,.2-1.6,22.3,22.3,0,0,1,1.9-7.9c.9-2,2.1-3,3.5-3a3,3,0,0,1,2.8,2.1,12,12,0,0,1,1,5.5v2.4a24,24,0,0,1-1.9,7.8C398.6,405.2,397.3,406.2,395.9,406.2Zm1.8-19c-.7,0-1.3.9-1.7,2.6a37.6,37.6,0,0,0-1,6.3c0,.7-.1,1.4-.1,2.1a13.4,13.4,0,0,0-.1,1.9,11.2,11.2,0,0,0,.3,2.9c.2.9.5,1.3,1,1.3s1.2-1,1.7-3.1a59.1,59.1,0,0,0,1-6.6c.1-1.1.1-2.1.1-3.2a13,13,0,0,0-.3-3.1C398.4,387.6,398.1,387.2,397.7,387.2Zm8.5-1.5.9,14.3c.6-2.5,1.2-4.9,1.8-7s1.1-4.9,1.7-7.3H412v.6a.8.8,0,0,0-.1.4c-.2.6-.5,1.4-.8,2.4a20.7,20.7,0,0,1-.6,2.4c-.8,2.8-1.4,5.2-1.9,7s-1.3,5.1-1.8,7.4l-.9-.3h-.5l-.5.2c-.2-3.6-.5-7-.7-10.3s-.5-6.6-.8-9.9h2.8Zm13.8,5.2-1,11.3v1c0,.7.2,1,.7,1h.1v.9l-.9.9a1.9,1.9,0,0,1-.9.3,1,1,0,0,1-1-.8,5.8,5.8,0,0,1-.6-2.2,7.5,7.5,0,0,1-1.1,2.2,1.9,1.9,0,0,1-1.5.8,1.7,1.7,0,0,1-1.6-1,6.1,6.1,0,0,1-.6-3v-1.5a9.2,9.2,0,0,1,1.1-4.2,9.7,9.7,0,0,1,2.8-2.2l.9-.5c.2-.2.4-.3.5-.5a1.1,1.1,0,0,0,.3-.7c.1-.3.1-.6.2-.9v-.6a5.4,5.4,0,0,0-.5-2.2c-.3-.6-.6-.9-1-.9a2.4,2.4,0,0,0-1.6,1,3.8,3.8,0,0,0-.9,1.6h-.1V388a6.7,6.7,0,0,1,1.7-2,3.2,3.2,0,0,1,1.9-.7,2.6,2.6,0,0,1,2.1,1,5.7,5.7,0,0,1,1,3.6Zm-3.3,8.1.4-4-1,.7a3.5,3.5,0,0,0-1,1.1,3,3,0,0,0-.6,1.4c-.1.5-.2,1.2-.3,2v1.2a6.1,6.1,0,0,0,.2,1.5.7.7,0,0,0,.6.6c.5,0,1-.5,1.3-1.5A15.4,15.4,0,0,0,416.7,399Zm8.9-10.6-1,11.7a6.6,6.6,0,0,1-.1,1.4,5.5,5.5,0,0,1-.1.9c0,1,.3,1.6.8,1.6l.4-.2.4-.2v1.6a2.9,2.9,0,0,1-2,1,1.5,1.5,0,0,1-1.5-1,8,8,0,0,1-.4-3v-1.1a11.8,11.8,0,0,1,.1-1.6l1-11.1h-1.3c.1-1.1.2-2,.2-2.7h1.3l.4-4.7,1.7-1.5,1.1-1-.6,7.2h1.5a8.6,8.6,0,0,0-.1,1.5,4.1,4.1,0,0,0-.1,1.2Zm2,17.5,1.8-20.2H432l-1.8,20.2-.6-.2h-1.3Zm2.3-27.8a5.2,5.2,0,0,1,.6-2.3c.3-.6.7-1,1.1-1s.6.3.9.9a5.4,5.4,0,0,1,.3,1.9v.5a7,7,0,0,1-.6,2.3c-.4.7-.8,1-1.2,1s-.6-.3-.8-.8a4.9,4.9,0,0,1-.4-1.9Zm6.7,7.6.8,14.3c.7-2.5,1.3-4.9,1.8-7s1.2-4.9,1.7-7.3h1.5a1.3,1.3,0,0,1-.1.6c0,.2-.1.3-.1.4l-.7,2.4-.7,2.4c-.7,2.8-1.4,5.2-1.8,7s-1.3,5.1-1.8,7.4l-1-.3h-.5l-.4.2c-.3-3.6-.5-7-.8-10.3s-.5-6.6-.8-9.9h2.9Zm15,10h-6.3c-.1.5-.1.9-.2,1.4v1.2a9.7,9.7,0,0,0,.6,3.8,2.2,2.2,0,0,0,2,1.4,2.7,2.7,0,0,0,1.3-.5,6,6,0,0,0,1.3-1.4l.2.4-.7,2.3a5.3,5.3,0,0,1-3.7,1.9,3,3,0,0,1-2.7-2,12.2,12.2,0,0,1-1.1-5.5v-.9c0-.3.1-.8.2-1.6a22.3,22.3,0,0,1,1.9-7.9c.9-2,2.1-3,3.5-3a3.1,3.1,0,0,1,2.8,2,12.8,12.8,0,0,1,1,5.6v2.3A1.3,1.3,0,0,0,451.6,395.7Zm-6.2-1.9H449v-2.4a13,13,0,0,0-.3-3.1c-.2-.7-.5-1.1-.9-1.1s-1.1.6-1.6,1.9A35.9,35.9,0,0,0,445.4,393.8ZM457,416.4l2.7-30.7h2.4l-.3,3.7a8.4,8.4,0,0,1,1.3-3,2.1,2.1,0,0,1,1.6-1.1c1,0,1.8.7,2.3,2a16.9,16.9,0,0,1,.6,5.1c0,1,0,2-.1,3a22,22,0,0,1-1.9,8.2c-.8,1.8-1.7,2.6-2.8,2.6a1.7,1.7,0,0,1-1.4-.8,7.1,7.1,0,0,1-.7-2.2l-1.1,13.2-.8-.2h-.5l-.6.2Zm5.3-12.9c.6-.1,1.1-.8,1.5-2.2a28.4,28.4,0,0,0,.9-5.5,11.5,11.5,0,0,0,.1-2,13.4,13.4,0,0,0,.1-1.9,9.9,9.9,0,0,0-.3-2.8c-.2-.7-.5-1.1-.8-1.1s-1.3,1-1.8,3.1a28.6,28.6,0,0,0-.7,5c-.1.4-.1,1-.2,1.7v1.8a16.5,16.5,0,0,0,.2,2.7C461.5,403.1,461.9,403.5,462.3,403.5Zm6.3,2.4,1.8-20.2h2.5l-.4,5.1a14.6,14.6,0,0,1,1.3-3.9,2.5,2.5,0,0,1,2.2-1.6c-.1,1.1-.3,2.2-.4,3.1s-.1,1.7-.2,2.5l-.2.4a.9.9,0,0,0-.9-.5,1.4,1.4,0,0,0-1.1.6,5.1,5.1,0,0,0-.8,2.1q-.1.8-.3,2.4c-.1,1.2-.2,2-.2,2.4l-.7,7.6-.8-.2h-1.1Zm11.2.3a3,3,0,0,1-2.7-2,12.2,12.2,0,0,1-1.1-5.5c0-.4.1-.7.1-.9a11.8,11.8,0,0,1,.1-1.6,22.3,22.3,0,0,1,1.9-7.9q1.5-3,3.6-3c1.2,0,2.1.7,2.8,2.1a13.7,13.7,0,0,1,.9,5.5v2.4a21.7,21.7,0,0,1-1.9,7.8C482.5,405.2,481.3,406.2,479.8,406.2Zm1.8-19c-.7,0-1.3.9-1.7,2.6a37.6,37.6,0,0,0-1,6.3c0,.7-.1,1.4-.1,2.1a13.4,13.4,0,0,0-.1,1.9,11.2,11.2,0,0,0,.3,2.9c.2.9.5,1.3,1,1.3s1.2-1,1.7-3.1a42.3,42.3,0,0,0,1-6.6c.1-1.1.1-2.1.1-3.2a13,13,0,0,0-.3-3.1C482.3,387.6,482,387.2,481.6,387.2Zm15.7-13-2.8,31.7-1.2-.3h-.6l-.7.2.4-3.8a7,7,0,0,1-1.3,3,1.9,1.9,0,0,1-1.6,1.1c-1.1,0-1.8-.6-2.3-2a13,13,0,0,1-.7-4.9c0-.5.1-1.3.1-2.2s.1-.9.1-1.3a30.1,30.1,0,0,1,1.5-7.2q1.2-3.3,3-3.3a1.6,1.6,0,0,1,1.4.7,5,5,0,0,1,.9,2.3l1.2-14.1.7.2h1.2ZM491.9,388c-.7,0-1.3,1-1.7,3a35.7,35.7,0,0,0-.8,4.9c0,.9-.1,1.7-.1,2.3s-.1,1.1-.1,1.4a10.9,10.9,0,0,0,.3,2.8c.2.7.5,1.1.9,1.1s1.3-1,1.8-3a45.1,45.1,0,0,0,.7-5.1,8.1,8.1,0,0,0,.1-1.7c0-.8.1-1.3.1-1.6a10.4,10.4,0,0,0-.3-2.8C492.7,388.5,492.3,388,491.9,388Zm14.8-2.3L505,405.9l-1.2-.3h-.6l-.7.2.3-3.2a12.8,12.8,0,0,1-1.5,2.6,2.2,2.2,0,0,1-1.7.9,1.9,1.9,0,0,1-1.3-.6,4.8,4.8,0,0,1-.9-1.9c-.1-.3-.1-.7-.2-1.1v-1a17.7,17.7,0,0,1,.1-2.2c.1-1.4.1-2.1.1-2.2l1.1-11.5H501l-1,11.5a6.8,6.8,0,0,1-.1,1.2v2.2c.2,1.4.5,2.1,1.2,2.1s1.2-.7,1.6-2.1a37.3,37.3,0,0,0,.5-4.1l1-10.8h2.5Zm10.1,1.5-1.1,4.3h-.4v-.4a11.1,11.1,0,0,0-.4-2.8c-.3-.7-.6-1.1-1.1-1.1s-1.5,1-2.1,2.9a34.2,34.2,0,0,0-.9,5.3c0,.3-.1.8-.1,1.5s-.1,1.2-.1,1.4a9.4,9.4,0,0,0,.6,3.8,1.8,1.8,0,0,0,1.7,1.4,2.1,2.1,0,0,0,1.1-.5,5.6,5.6,0,0,0,1-1.5l.2.6-.6,2.5a3.4,3.4,0,0,1-1.2,1.2,3.1,3.1,0,0,1-1.5.4,3.4,3.4,0,0,1-3-2,12.2,12.2,0,0,1-1.1-5.7c0-.3.1-.6.1-1.1a5.7,5.7,0,0,1,.1-1.3,18.6,18.6,0,0,1,2-7.9c1-1.9,2.3-2.9,3.8-2.9a3.7,3.7,0,0,1,1.7.5A3.5,3.5,0,0,1,516.8,387.2Zm4.5,1.2-1.1,11.7a6.6,6.6,0,0,1-.1,1.4v.9c0,1,.2,1.6.7,1.6l.4-.2.4-.2v1.6a2.9,2.9,0,0,1-2,1,1.5,1.5,0,0,1-1.5-1,8,8,0,0,1-.4-3v-1.1c0-.3.1-.8.1-1.6l1-11.1h-1.3c.2-1.1.2-2,.3-2.7h1.2l.4-4.7,1.7-1.5,1.1-1-.6,7.2H523c0,.6-.1,1.1-.1,1.5a4.1,4.1,0,0,0-.1,1.2Zm2,12.2h.4a7.6,7.6,0,0,0,.6,2.5c.3.7.7,1,1.2,1s.7-.3,1.1-.7a4.8,4.8,0,0,0,.6-1.8v-.3c0-.9-.6-1.9-1.8-3.1a6.9,6.9,0,0,1-1.7-4.8v-1.5a11.9,11.9,0,0,1,1.4-4.8q1-1.8,2.4-1.8a2.7,2.7,0,0,1,1.4.5,5.8,5.8,0,0,1,1.1,1.5c-.2.8-.3,1.4-.4,1.8l-.3,1.8h-.5a6,6,0,0,0-.5-2.4c-.3-.7-.6-1-1-1a1.4,1.4,0,0,0-1.1.6,3.9,3.9,0,0,0-.5,1.8v.5c0,.8.6,1.7,1.8,2.9a6.1,6.1,0,0,1,1.7,4.8v1.5a11.3,11.3,0,0,1-1.4,4.8,3.1,3.1,0,0,1-2.8,1.8,2.2,2.2,0,0,1-1.3-.4,3.7,3.7,0,0,1-1.1-1.3,19.3,19.3,0,0,0,.4-2.4Q523.2,401.5,523.3,400.6Zm17-12.2-1,11.7c0,.5-.1.9-.1,1.4a5.5,5.5,0,0,1-.1.9c0,1,.3,1.6.7,1.6l.5-.2.4-.2v1.6a3.1,3.1,0,0,1-2.1,1,1.5,1.5,0,0,1-1.4-1,7.8,7.8,0,0,1-.5-3,3.7,3.7,0,0,1,.1-1.1,11.8,11.8,0,0,1,.1-1.6l1-11.1h-1.3c.1-1.1.2-2,.2-2.7H538l.4-4.7,1.7-1.5,1.1-1-.7,7.2h1.6c-.1.6-.1,1.1-.2,1.5v1.2Zm7-14.2-1.2,14.3a9.3,9.3,0,0,1,1.4-2.2,2.4,2.4,0,0,1,1.6-1c.9,0,1.6.6,2,1.9a5.7,5.7,0,0,1,.4,1.4c0,.5.1,1,.1,1.7a16.2,16.2,0,0,0-.1,2.2l-1.2,13.4-.6-.2h-1.3l-.7.2.9-10.4a25.7,25.7,0,0,0,.2-3.6,12.1,12.1,0,0,0-.2-2.3c-.2-.6-.5-.8-.9-.8s-1,.5-1.4,1.5a41.6,41.6,0,0,0-.9,5.9l-.8,9.7-.7-.2h-1.2l-.7.2,2.8-31.7.6.2h1.3Zm5.5,31.7,1.7-20.2h2.6l-.5,5.1a14.6,14.6,0,0,1,1.3-3.9c.7-1.1,1.4-1.6,2.3-1.6s-.3,2.2-.4,3.1a21.1,21.1,0,0,0-.2,2.5l-.2.4a.9.9,0,0,0-.9-.5,1.6,1.6,0,0,0-1.2.6,7.1,7.1,0,0,0-.8,2.1q-.2.8-.3,2.4c-.1,1.2-.2,2-.2,2.4l-.7,7.6-.7-.2h-1.2Zm11.2.3a3,3,0,0,1-2.8-2,12.3,12.3,0,0,1-1-5.5v-.9c0-.3.1-.8.1-1.6a24.7,24.7,0,0,1,1.9-7.9q1.5-3,3.6-3c1.2,0,2.1.7,2.8,2.1a12,12,0,0,1,1,5.5v1.3a4.5,4.5,0,0,0-.1,1.1,21.7,21.7,0,0,1-1.9,7.8C566.6,405.2,565.4,406.2,564,406.2Zm1.8-19c-.7,0-1.3.9-1.8,2.6a57.6,57.6,0,0,0-.9,6.3c-.1.7-.1,1.4-.2,2.1v1.9a20.7,20.7,0,0,0,.2,2.9c.3.9.6,1.3,1,1.3s1.3-1,1.8-3.1a43.9,43.9,0,0,0,.9-6.6c.1-1.1.2-2.1.2-3.2a13,13,0,0,0-.3-3.1C566.5,387.6,566.2,387.2,565.8,387.2Zm14.6-1.5-1.8,20.2-1.2-.3h-.6l-.7.2.3-3.2a12.8,12.8,0,0,1-1.5,2.6,2.1,2.1,0,0,1-1.6.9,2,2,0,0,1-1.4-.6,4.8,4.8,0,0,1-.9-1.9c-.1-.3-.1-.7-.2-1.1v-1a17.7,17.7,0,0,1,.1-2.2c.1-1.4.2-2.1.2-2.2l1-11.5h2.5l-.9,11.5a3.5,3.5,0,0,0-.1,1.2,6.6,6.6,0,0,0-.1,1.3,7.8,7.8,0,0,0,.1.9c.1,1.4.5,2.1,1.1,2.1s1.2-.7,1.6-2.1a31.5,31.5,0,0,0,.6-4.1l.9-10.8h2.6Zm10.2-.2-.2,1.9-1.6-.2a9.1,9.1,0,0,1,.6,3.5v1.2a9.6,9.6,0,0,1-1.6,5.1,3.5,3.5,0,0,1-3,1.6h-.2a.7.7,0,0,0-.6.4,1.7,1.7,0,0,0-.3,1v.5a2.2,2.2,0,0,0,.4,1.3,1.8,1.8,0,0,0,1,.4h1.6a1.8,1.8,0,0,1,1.7,1.1,5.5,5.5,0,0,1,.6,2.8v1a1.8,1.8,0,0,0-.1.5,12.4,12.4,0,0,1-2.1,6.7,4.2,4.2,0,0,1-3.5,2.2,3,3,0,0,1-2.2-1,5.2,5.2,0,0,1-1.1-3.5v-1a8.2,8.2,0,0,1,.7-2.9,5.2,5.2,0,0,1,1.3-1.8l.3-.4v-.3a3.1,3.1,0,0,1-.5-1,5.9,5.9,0,0,1-.2-1.4v-.7a11.1,11.1,0,0,1,.7-2.6q.6-1.3,1.2-1.5l.3-.2c-1.3-.7-1.9-2.3-1.9-4.7v-1c0-.4.1-.7.1-.9a9.1,9.1,0,0,1,1.5-4.9,3.9,3.9,0,0,1,3.2-1.5h4.1ZM582,408.7a1.9,1.9,0,0,0-.2.8c0,.3-.1.5-.1.7v.9a4.7,4.7,0,0,0,.7,2.8,1.7,1.7,0,0,0,1.5,1c.7,0,1.3-.5,1.8-1.4a8.5,8.5,0,0,0,.9-3.3v-1.1c0-1.3-.2-2.1-.7-2.5a3.2,3.2,0,0,0-1.7-.4c-.6,0-1,.1-1.2.4A2.6,2.6,0,0,0,582,408.7Zm2.3-16.4a4.9,4.9,0,0,1-.1,1.2v.8a10.3,10.3,0,0,0,.2,2c.1.5.4.8.7.8s.9-.7,1.2-2.1.3-1.9.5-3.4v-.9a3.4,3.4,0,0,0,.1-1.1,9.2,9.2,0,0,0-.2-1.9c-.1-.6-.4-.8-.7-.8s-.7.4-1,1.2A19.6,19.6,0,0,0,584.3,392.3Zm11.3-18.1-1.3,14.3a14,14,0,0,1,1.4-2.2,2.4,2.4,0,0,1,1.6-1c.9,0,1.6.6,2,1.9a5.7,5.7,0,0,1,.4,1.4,8.6,8.6,0,0,1,.1,1.7c0,.7-.1,1.5-.1,2.2l-1.2,13.4-.6-.2h-1.3l-.6.2.9-10.4c.1-1.5.1-2.7.1-3.6a7.2,7.2,0,0,0-.2-2.3c-.2-.6-.5-.8-.9-.8s-1,.5-1.4,1.5a33,33,0,0,0-.8,5.9l-.9,9.7-.7-.2h-1.2l-.7.2,2.8-31.7.7.2h1.2Zm10.8,31.7,1.8-20.2h2.5L609,405.9l-.7-.2h-1.2Zm2.2-27.8a7,7,0,0,1,.6-2.3c.4-.6.7-1,1.1-1s.7.3.9.9a3.8,3.8,0,0,1,.4,1.9v.5a5.2,5.2,0,0,1-.7,2.3c-.3.7-.7,1-1.1,1s-.6-.3-.8-.8a3.6,3.6,0,0,1-.4-1.9Zm2.9,27.8,1.7-20.2h2.5l-.3,3.1a10.9,10.9,0,0,1,1.5-2.5,2.2,2.2,0,0,1,1.7-1,2,2,0,0,1,1.8,1.4,8.8,8.8,0,0,1,.5,3.7v1.1c0,.2,0,1-.1,2.2l-1.1,12.2-.6-.2h-1.3l-.6.2.9-10.4c.1-1.5.2-2.7.2-3.6a6.7,6.7,0,0,0-.3-2.3c-.2-.6-.5-.8-.9-.8s-1.2.9-1.6,2.7-.4,2.6-.6,4.7l-.9,9.7-.7-.2h-1.2Zm10.5,0,1.7-20.2h2.5l-.3,3.1a10.9,10.9,0,0,1,1.5-2.5,2.2,2.2,0,0,1,1.7-1,2,2,0,0,1,1.8,1.4,8.8,8.8,0,0,1,.5,3.7v1.1c0,.2,0,1-.1,2.2l-1,12.2-.7-.2h-1.2l-.7.2.9-10.4c.1-1.5.2-2.7.2-3.6a6.7,6.7,0,0,0-.3-2.3c-.2-.6-.4-.8-.8-.8s-1.3.9-1.7,2.7-.4,2.6-.6,4.7l-.9,9.7-.7-.2h-1.2Zm14.6.3a3,3,0,0,1-2.8-2,12.3,12.3,0,0,1-1-5.5v-.9c0-.3.1-.8.1-1.6a22.3,22.3,0,0,1,1.9-7.9q1.5-3,3.6-3c1.2,0,2.1.7,2.8,2.1a12,12,0,0,1,1,5.5v1.3a4.5,4.5,0,0,0-.1,1.1,21.7,21.7,0,0,1-1.9,7.8C639.2,405.2,638,406.2,636.6,406.2Zm1.8-19c-.8,0-1.3.9-1.8,2.6a40.1,40.1,0,0,0-.9,6.3c-.1.7-.1,1.4-.2,2.1v1.9a11.9,11.9,0,0,0,.2,2.9c.2.9.6,1.3,1,1.3s1.3-1,1.8-3.1a43.9,43.9,0,0,0,.9-6.6c.1-1.1.1-2.1.1-3.2a13.7,13.7,0,0,0-.2-3.1C639.1,387.6,638.8,387.2,638.4,387.2Zm8.5-1.5.8,14.3c.7-2.5,1.3-4.9,1.8-7s1.2-4.9,1.7-7.3h1.5a1.3,1.3,0,0,1-.1.6c0,.2-.1.3-.1.4l-.7,2.4-.7,2.4c-.7,2.8-1.4,5.2-1.8,7s-1.3,5.1-1.8,7.4l-1-.3H646l-.4.2c-.3-3.6-.5-7-.8-10.3s-.5-6.6-.8-9.9h2.9Zm13.7,5.2-.9,11.3v1c0,.7.3,1,.7,1h.2v.9l-1,.9-.8.3a1.2,1.2,0,0,1-1.1-.8,9,9,0,0,1-.5-2.2,5.7,5.7,0,0,1-1.2,2.2,1.7,1.7,0,0,1-1.4.8,1.7,1.7,0,0,1-1.6-1,5.1,5.1,0,0,1-.7-3v-1.5a10.5,10.5,0,0,1,1.2-4.2,8,8,0,0,1,2.7-2.2l1-.5.5-.5.3-.7c0-.3.1-.6.1-.9v-.6a5.4,5.4,0,0,0-.4-2.2c-.3-.6-.7-.9-1-.9a2.6,2.6,0,0,0-1.7,1,4.8,4.8,0,0,0-.8,1.6H654V388a7,7,0,0,1,1.8-2,3.2,3.2,0,0,1,1.9-.7,2.6,2.6,0,0,1,2.1,1,6.4,6.4,0,0,1,1,3.6Zm-3.2,8.1.3-4-.9.7a5.7,5.7,0,0,0-1.1,1.1,9.8,9.8,0,0,0-.6,1.4c-.1.5-.2,1.2-.3,2v1.2a3.4,3.4,0,0,0,.2,1.5q.2.6.6.6t1.2-1.5A14.2,14.2,0,0,0,657.4,399Zm8.9-10.6-1,11.7a6.6,6.6,0,0,0-.1,1.4,4.4,4.4,0,0,0-.1.9c0,1,.2,1.6.7,1.6l.4-.2.5-.2v1.6a3.3,3.3,0,0,1-2.1,1,1.4,1.4,0,0,1-1.4-1,7.8,7.8,0,0,1-.5-3v-1.1a13.2,13.2,0,0,0,.2-1.6l.9-11.1h-1.2c.1-1.1.2-2,.2-2.7H664l.4-4.7,1.6-1.5,1.1-1-.6,7.2h1.6a10.4,10.4,0,0,0-.2,1.5v1.2Zm2,17.5,1.7-20.2h2.6l-1.7,20.2-.7-.2H669Zm2.2-27.8a7,7,0,0,1,.6-2.3c.4-.6.7-1,1.1-1s.7.3.9.9a5.3,5.3,0,0,1,.4,1.9v.5a5.2,5.2,0,0,1-.7,2.3c-.3.7-.7,1-1.1,1s-.6-.3-.9-.8a5,5,0,0,1-.3-1.9Zm6.8,7.6.8,14.3c.6-2.5,1.2-4.9,1.8-7s1.2-4.9,1.7-7.3H683v.6a.8.8,0,0,0-.1.4,18.4,18.4,0,0,0-.7,2.4l-.7,2.4c-.8,2.8-1.4,5.2-1.9,7s-1.3,5.1-1.8,7.4l-.9-.3h-.5l-.5.2c-.2-3.6-.5-7-.7-10.3s-.5-6.6-.8-9.9h2.9Zm15,10h-6.4c0,.5-.1.9-.1,1.4a6.8,6.8,0,0,0-.1,1.2,8.1,8.1,0,0,0,.7,3.8,2,2,0,0,0,3.2.9,4.4,4.4,0,0,0,1.3-1.4l.2.4-.6,2.3a5.4,5.4,0,0,1-1.8,1.4,5.9,5.9,0,0,1-1.9.5,3,3,0,0,1-2.8-2,12.3,12.3,0,0,1-1-5.5v-.9a11.8,11.8,0,0,1,.1-1.6,22.3,22.3,0,0,1,1.9-7.9q1.5-3,3.6-3a3.2,3.2,0,0,1,2.8,2,14.4,14.4,0,0,1,1,5.6,4.9,4.9,0,0,1-.1,1.2v1.6Zm-6.2-1.9h3.6v-2.4a24.1,24.1,0,0,0-.2-3.1c-.2-.7-.5-1.1-1-1.1s-1.1.6-1.5,1.9A18.5,18.5,0,0,0,686.1,393.8Zm17.1-5.4-1.1,11.7v1.4a4.4,4.4,0,0,0-.1.9c0,1,.2,1.6.7,1.6l.4-.2.5-.2-.2,1.6a2.9,2.9,0,0,1-2,1,1.5,1.5,0,0,1-1.5-1,10.8,10.8,0,0,1-.4-3v-1.1c0-.3.1-.8.2-1.6l.9-11.1h-1.2c.1-1.1.2-2,.2-2.7h1.2l.4-4.7,1.7-1.5,1.1-1-.6,7.2H705a10.4,10.4,0,0,0-.2,1.5c0,.3-.1.7-.1,1.2Zm7-14.2L709,388.5a9.3,9.3,0,0,1,1.4-2.2,2.2,2.2,0,0,1,1.6-1c.9,0,1.5.6,2,1.9a3.2,3.2,0,0,1,.3,1.4,8.6,8.6,0,0,1,.1,1.7,16.2,16.2,0,0,1-.1,2.2l-1.1,13.4-.7-.2h-1.2l-.7.2.9-10.4c.1-1.5.2-2.7.2-3.6a6.7,6.7,0,0,0-.3-2.3c-.1-.6-.4-.8-.8-.8s-1.1.5-1.4,1.5a30.6,30.6,0,0,0-.9,5.9l-.8,9.7-.8-.2h-1.1l-.7.2,2.7-31.7.7.2h1.3Zm5.5,31.7,1.7-20.2H720l-1.7,20.2-.7-.2h-1.2Zm2.2-27.8a7,7,0,0,1,.6-2.3c.4-.6.7-1,1.1-1s.7.3.9.9a5.3,5.3,0,0,1,.4,1.9v.5a5.2,5.2,0,0,1-.7,2.3c-.3.7-.7,1-1.1,1s-.6-.3-.9-.8a5,5,0,0,1-.3-1.9Zm2.9,27.8,1.7-20.2H725l-.3,3.1a10.9,10.9,0,0,1,1.5-2.5,2.2,2.2,0,0,1,1.7-1,2,2,0,0,1,1.8,1.4,8.8,8.8,0,0,1,.5,3.7v1.1c0,.2,0,1-.1,2.2L729,405.9l-.6-.2h-1.3l-.6.2.9-10.4c.1-1.5.2-2.7.2-3.6a6.7,6.7,0,0,0-.3-2.3c-.2-.6-.5-.8-.9-.8s-1.2.9-1.6,2.7-.4,2.6-.6,4.7l-.9,9.7-.7-.2h-1.2Zm10.5,0,2.8-31.7.7.2H736l.7-.2-1.8,20.4h.2l1.6-3.2,2.7-5.8H741v.3l-1.4,2.8c-1.6,2.9-2.3,4.4-2.4,4.5l1.1,5.3,1.2,6.8v.5l-.7-.2h-1.4l-.7.2c-.2-1.3-.4-2.7-.7-4.2s-.5-2.9-.7-4.2l-.2-.7a3.2,3.2,0,0,0-.2-.6l-.9,9.7-.7-.2H732Zm9.6,0,1.7-20.2h2.6l-1.7,20.2-.7-.2h-1.3Zm2.2-27.8a7,7,0,0,1,.6-2.3c.4-.6.7-1,1.1-1s.7.3.9.9a5.3,5.3,0,0,1,.4,1.9v.5a5.2,5.2,0,0,1-.7,2.3c-.3.7-.7,1-1.1,1s-.6-.3-.9-.8a5,5,0,0,1-.3-1.9Zm2.8,27.8,1.8-20.2h2.5l-.3,3.1a10.9,10.9,0,0,1,1.5-2.5,2.2,2.2,0,0,1,1.7-1,2,2,0,0,1,1.8,1.4,10.9,10.9,0,0,1,.5,3.7v1.1c0,.2-.1,1-.1,2.2l-1.1,12.2-.6-.2h-1.3l-.6.2.9-10.4c.1-1.5.1-2.7.1-3.6a7.2,7.2,0,0,0-.2-2.3c-.2-.6-.5-.8-.9-.8s-1.2.9-1.6,2.7a22.5,22.5,0,0,0-.6,4.7l-.9,9.7-.7-.2h-1.2Zm20.2-20.4v1.9l-1.7-.2a9.1,9.1,0,0,1,.6,3.5v1.2a9.6,9.6,0,0,1-1.6,5.1,3.4,3.4,0,0,1-2.9,1.6h-.3a.7.7,0,0,0-.6.4,2.9,2.9,0,0,0-.3,1v.5a2.3,2.3,0,0,0,.3,1.3,1.8,1.8,0,0,0,1,.4h1.6a2,2,0,0,1,1.8,1.1,7,7,0,0,1,.5,2.8v1.5a14.3,14.3,0,0,1-2.1,6.7,4.2,4.2,0,0,1-3.6,2.2,3,3,0,0,1-2.1-1,4.8,4.8,0,0,1-1.2-3.5v-1a11.2,11.2,0,0,1,.7-2.9,5.2,5.2,0,0,1,1.3-1.8l.3-.4v-.3a3.1,3.1,0,0,1-.5-1,5.9,5.9,0,0,1-.2-1.4v-.7a7.7,7.7,0,0,1,.7-2.6c.4-.9.7-1.4,1.1-1.5l.3-.2c-1.3-.7-1.9-2.3-1.9-4.7v-1a3.4,3.4,0,0,0,.1-.9,9.1,9.1,0,0,1,1.5-4.9,3.9,3.9,0,0,1,3.2-1.5h4.1Zm-8.6,23.2c-.1.2-.1.5-.2.8a1.5,1.5,0,0,1-.1.7v.9a5.5,5.5,0,0,0,.6,2.8,1.8,1.8,0,0,0,1.6,1c.6,0,1.2-.5,1.7-1.4a10.6,10.6,0,0,0,1-3.3v-1.1a3.1,3.1,0,0,0-.8-2.5,3.2,3.2,0,0,0-1.7-.4,1.5,1.5,0,0,0-1.2.4A3.4,3.4,0,0,0,757.5,408.7Zm2.3-16.4v1.2a2.8,2.8,0,0,0-.1.8,10.3,10.3,0,0,0,.2,2c.2.5.4.8.7.8s.9-.7,1.2-2.1a19.2,19.2,0,0,0,.5-3.4c0-.3.1-.6.1-.9v-1.1a9.2,9.2,0,0,0-.2-1.9c-.1-.6-.3-.8-.6-.8s-.8.4-1.1,1.2A29.3,29.3,0,0,0,759.8,392.3Z" transform="translate(-12.1 -120.4)"/><path class="cls-3" d="M193.7,437.4l-.2-.3h.9l2.2.2a18.8,18.8,0,0,0,3.1-.4,24,24,0,0,0,3.8-1,56.3,56.3,0,0,0,5.2-2.5c2.2-1.3,5.1-3,19.4-16s39.8-37,53.5-49.6,15.4-13.7,17.3-13.9a6.5,6.5,0,0,1,5.3,2.4c1.4,1.7,2.1,4.3-2.1,16.5s-13.6,34.1-18.7,46-5.8,13.9-6.5,15.8a24.9,24.9,0,0,0-1.1,5.1,3.2,3.2,0,0,0,.8,2.5,3.4,3.4,0,0,0,2.7.7c1.3-.2,3.2-.8,12-6.7s24.3-16.9,33.9-23.7l16.2-11.5,8.1-5.4c2.1-1.4,3.7-2.3,5.1-3.1s2.4-1.4-2.3,2.2-15.1,11.6-22.7,17.3l-16.3,12.3-11.9,9.2c-3.9,3-8.2,6-11.4,8.1s-5.6,3.5-7.8,4.2a15,15,0,0,1-5.8,1,4.1,4.1,0,0,1-3.2-1.7,7.3,7.3,0,0,1-1.6-3.9,16.9,16.9,0,0,1,.5-5.3c.5-2,1.1-4,6.3-16.4s15-35.1,19.6-47,4-13.2,2.9-14.1-2.8-1.1-14.6,9.9-33.7,33.3-46.2,45.8-15.8,15.3-18,17.1a40.9,40.9,0,0,1-4.1,3.2,10,10,0,0,1-2.5,1.3l-2.9,1.3a18.1,18.1,0,0,1-3.1,1.3,29.2,29.2,0,0,1-3.6,1.1l-2.5.5h-2.2l-4.3-.8a6.5,6.5,0,0,1-2.4-1.2Z" transform="translate(-12.1 -120.4)"/><path class="cls-4" d="M161.4,226.3c-.4.1-.3.3,0,1.4a41.3,41.3,0,0,1,1.8,6.1c.8,3.1,1.7,7.4,2.4,11.9s1.5,9.1,2.3,15.3,1.7,14.2,2.2,23.8.7,21,.6,33.2-.2,25-.4,36.6-.3,21.9-.3,30.3.4,14.8.7,20.4a136.6,136.6,0,0,0,1.7,14.1,56.6,56.6,0,0,0,2.7,10,35.1,35.1,0,0,0,3.1,6.7,14.1,14.1,0,0,0,4.2,4.9,21.5,21.5,0,0,0,6.4,2.8,16.3,16.3,0,0,0,6.3.6,39.6,39.6,0,0,0,8.2-1.6,30.9,30.9,0,0,0,6.6-3.1c2.1-1.1,4.3-2.4,5.8-3.4a28.1,28.1,0,0,0,2.8-2h-.1l-1.3.7a37.9,37.9,0,0,1-4.8,2.2,46.1,46.1,0,0,1-5.5,2,17.1,17.1,0,0,1-4.9.7,18.3,18.3,0,0,1-5.2-.9,9.7,9.7,0,0,1-4.3-3.2,36.2,36.2,0,0,1-3.6-7.1c-.9-2.5-1.5-4.9-1.7-14.8s.1-27.6.4-41.5.7-24.3.9-38.2,0-31.4-.5-43.6a213.2,213.2,0,0,0-2.5-26.5c-1.1-7.1-2.4-14.2-3.2-18.3a29,29,0,0,0-1.6-6l-1.6-3.2c-.6-1-1.2-2.1-1.9-3.1a24.3,24.3,0,0,0-2.6-3,16.5,16.5,0,0,0-3.3-2.4,20.2,20.2,0,0,0-4.1-1.5,16.3,16.3,0,0,0-3.5-.5Z" transform="translate(-12.1 -120.4)"/><path class="cls-5" d="M64.5,303.3,166.4,233c3.3-2.3,6.4,4.6,3.1,6.8L67.8,307.7A2.8,2.8,0,1,1,64.5,303.3Z" transform="translate(-12.1 -120.4)"/><path class="cls-6" d="M77,317.9l93.8-72.5c2.6-2,6.7,4.3,2.9,7.2L79.5,324.7C77.1,326.5,73.8,320.4,77,317.9Z" transform="translate(-12.1 -120.4)"/><path class="cls-7" d="M71.7,353.1l100.1-95c2.9-2.8,7.9,3.1,4.9,5.9L75.3,360.7C72,363.8,68.8,355.9,71.7,353.1Z" transform="translate(-12.1 -120.4)"/><path class="cls-8" d="M81.9,382.8l92-108.8c2.1-2.6,6.9,4.4,4.6,7.2L85.1,390.9C82.9,393.5,78.6,386.7,81.9,382.8Z" transform="translate(-12.1 -120.4)"/><path class="cls-9" d="M104,392.1l70.6-97.7c3.2-4.4,8.2,3,5.8,6.2l-71.6,99.5C106.4,403.3,101.6,395.3,104,392.1Z" transform="translate(-12.1 -120.4)"/><path class="cls-10" d="M125.9,401.9l48.6-82.3c1.9-3.1,7.1,4.3,5.8,6.6l-49.6,84C128.9,413.1,123.2,406.6,125.9,401.9Z" transform="translate(-12.1 -120.4)"/><path class="cls-11" d="M150.4,401.4l26.1-53.1c3.3,0,5.1,2.2,5.7,6.4l-25.4,54.6C153.7,409.5,151.6,406.9,150.4,401.4Z" transform="translate(-12.1 -120.4)"/><path class="cls-12" d="M63.4,121.8c34.5,1.9,33.8,18.8,23.9,40.5C70.1,199.8,17.5,283.5,13.6,312.4c-3.2,23.9,11.6,21.1,21,.4,0,0,57.9-115.4,68.3-156.8S74.8,119.7,63.4,121.8Z" transform="translate(-12.1 -120.4)"/><path class="cls-13" d="M13.7,313.1c-.1-.8-.1-.8-.1-.6a12.6,12.6,0,0,0-.4,1.9c-.2,1.2-.6,3.1-.9,4.7a17,17,0,0,0-.2,3.8,22.5,22.5,0,0,0,.6,3.6,15.8,15.8,0,0,0,1.6,3.5,8.6,8.6,0,0,0,2.5,2.9,8.5,8.5,0,0,0,4.4,1.8,20.9,20.9,0,0,0,6.8-.6,38.5,38.5,0,0,0,8.3-2.8,70.2,70.2,0,0,0,10.6-5.8c3.4-2.2,6.3-4.5,11-8.2s11.2-8.8,22.6-19.5,27.9-27.1,39.2-38.3,17.6-17.4,22.2-21.6,7.4-6.7,10.6-8.4a22.3,22.3,0,0,1,9.7-3.2,16.2,16.2,0,0,1,14.9,7.5,47.5,47.5,0,0,1,3.3,5.9,20.1,20.1,0,0,1,1.1,3.2c.2.7.3,1.3.1.4s-.7-3.4-1.3-5.7a53.4,53.4,0,0,0-2.4-6.6,35.9,35.9,0,0,0-4.5-8,25.9,25.9,0,0,0-6.5-6,22.2,22.2,0,0,0-6.1-2.9,21.3,21.3,0,0,0-5.5-.7,18,18,0,0,0-5.6,1.3,58.9,58.9,0,0,0-7.5,3.8,105.5,105.5,0,0,0-10.4,7c-4.1,3.1-8.9,7.1-15,12.7s-13.7,13-22.8,21.7-19.6,19-27.5,26.5-13.1,12.1-17.1,15.5-6.9,5.4-9.6,7.3-4.9,3.5-7.1,4.9-4,2.7-5.8,3.8a32.5,32.5,0,0,1-4.9,2.5,18.7,18.7,0,0,1-4.2,1.1,2.9,2.9,0,0,1-2-.6,3.7,3.7,0,0,1-1.1-1.3,9.6,9.6,0,0,1-.8-2.8A26.2,26.2,0,0,1,13.7,313.1Z" transform="translate(-12.1 -120.4)"/></svg>