<?xml version="1.0" encoding="UTF-8"?>
<svg id="Layer_1" xmlns="http://www.w3.org/2000/svg" version="1.1" xmlns:xlink="http://www.w3.org/1999/xlink" viewBox="0 0 158.88 158.64">
  <!-- Generator: Adobe Illustrator 29.7.1, SVG Export Plug-In . SVG Version: 2.1.1 Build 8)  -->
  <defs>
    <style>
      .st0 {
        fill: url(#linear-gradient2);
      }

      .st1 {
        fill: #2e3192;
      }

      .st2 {
        fill: #fff;
      }

      .st3 {
        fill: url(#linear-gradient1);
      }

      .st4 {
        fill: url(#linear-gradient3);
      }

      .st5 {
        fill: url(#linear-gradient);
      }

      .st6 {
        fill: #0edd84;
      }
    </style>
    <linearGradient id="linear-gradient" x1="50.59" y1="13.58" x2="121.93" y2="84.91" gradientUnits="userSpaceOnUse">
      <stop offset="0" stop-color="#0071bc"/>
      <stop offset=".44" stop-color="#fff"/>
      <stop offset=".55" stop-color="#fff"/>
      <stop offset="1" stop-color="#009245"/>
    </linearGradient>
    <linearGradient id="linear-gradient1" x1="117.26" y1="140.71" x2="119.61" y2="116.41" gradientUnits="userSpaceOnUse">
      <stop offset=".16" stop-color="#1575fb"/>
      <stop offset="1" stop-color="#44c6fe"/>
    </linearGradient>
    <linearGradient id="linear-gradient2" x1="50.59" y1="13.58" x2="121.93" y2="84.91" gradientUnits="userSpaceOnUse">
      <stop offset="0" stop-color="#4f72f5"/>
      <stop offset=".44" stop-color="#fff"/>
      <stop offset=".55" stop-color="#fff"/>
      <stop offset="1" stop-color="#45da86"/>
    </linearGradient>
    <linearGradient id="linear-gradient3" x1="47.07" y1="10.05" x2="130.88" y2="93.86" gradientUnits="userSpaceOnUse">
      <stop offset=".41" stop-color="#3c73f8"/>
      <stop offset=".53" stop-color="#0edd84"/>
    </linearGradient>
  </defs>
  <path class="st5" d="M62.17,81.36s-.1-3.91-.1,9.63,9.83,11.14,23.47,11.14,11.14-10.33,11.03-20.06c-.1-9.73,4.14-7.43,13.93-14.54,10.29-7.47,14.77-15.57,17.32-21.67s6.4-22.7,5.67-23.48c-.83-.89-1.98-1.17-3.19-1.13-6,.18-7.76,16.91-16.61,28.9-4.57,6.19-11.9,12.15-27.03,13.71,6.35-3.06,16.83-12.39,18.79-17.29,1.96-4.89.85-8.85-1.61-9s-1.25,3.76-10.99,9.16c-7.2,3.99-19.65,1.55-32.99,12.14-8.15,6.47-7.65,15.46-19.16,15.47-5.51,0-7.02-4.21-7.02-4.21-1.38-3.06-.94-14.17-.8-18.44s-.14-9.25,9.54-9.25h19.5v-25.86s.03-8.57,11.61-8.57h14.46c4.61,0,8.9,1.83,8.9,8.88v12.24"/>
  <rect class="st3" x="86.71" y="112.17" width="63.93" height="27.88" rx="13.94" ry="13.94"/>
  <path class="st6" d="M18.41,140.05l-9.49-27.88h6.1l7.27,22.19,7.23-22.19h6.1l-9.49,27.88h-7.72ZM38.87,140.05v-27.88h19.22v5.05h-13.41v6.25h11.68v4.86h-11.68v6.67h13.6v5.05h-19.4ZM70.52,140.05v-22.83h-8.55v-5.05h22.91v5.05h-8.55v22.83h-5.8Z"/>
  <path class="st2" d="M99.38,133.41v-14.21h5.86c1.17,0,2.13.23,2.91.69.77.46,1.36,1.05,1.75,1.78.39.72.58,1.48.58,2.26s-.2,1.57-.58,2.3c-.39.72-.97,1.32-1.75,1.78-.78.46-1.75.69-2.91.69h-2.9v4.73h-2.96ZM105.24,121.79h-2.9v4.32h2.9c.5,0,.92-.11,1.25-.32s.59-.48.76-.81.26-.68.26-1.05-.09-.7-.26-1.04-.43-.6-.76-.81-.75-.31-1.25-.31ZM112.42,133.41v-14.21h5.76c1.05,0,1.95.19,2.7.56.75.37,1.33.88,1.73,1.54.4.65.61,1.41.61,2.27,0,.93-.24,1.75-.71,2.45-.47.7-1.15,1.21-2.02,1.53l3.09,5.88h-3.28l-2.82-5.47h-2.09v5.47h-2.96ZM118.15,121.75h-2.77v3.76h2.77c.65,0,1.17-.18,1.54-.54.37-.36.56-.8.56-1.33s-.19-.99-.56-1.35c-.37-.36-.88-.55-1.54-.55ZM132.13,133.6c-1.18,0-2.22-.21-3.11-.62-.9-.42-1.65-.97-2.26-1.67-.61-.7-1.06-1.48-1.36-2.35s-.45-1.76-.45-2.67.15-1.8.45-2.66c.3-.86.76-1.64,1.36-2.33.61-.69,1.36-1.25,2.26-1.66.9-.42,1.93-.62,3.11-.62s2.23.21,3.13.62,1.65.97,2.25,1.66c.6.69,1.05,1.47,1.35,2.33.3.87.45,1.75.45,2.66s-.15,1.8-.45,2.67-.75,1.66-1.35,2.35c-.6.7-1.35,1.25-2.25,1.67-.9.42-1.94.62-3.13.62ZM132.13,130.93c.9,0,1.65-.22,2.27-.67.62-.45,1.08-1.03,1.38-1.74.31-.71.46-1.46.46-2.24s-.15-1.52-.46-2.23c-.31-.7-.77-1.28-1.38-1.73-.61-.45-1.37-.67-2.27-.67s-1.65.22-2.26.67-1.07,1.02-1.37,1.73c-.31.7-.46,1.45-.46,2.23s.15,1.53.46,2.24c.31.71.76,1.29,1.37,1.74s1.36.67,2.26.67Z"/>
  <path class="st1" d="M6.22,152.53c-.41,0-.77-.07-1.07-.22-.3-.15-.56-.35-.76-.6-.2-.25-.35-.54-.45-.85-.1-.31-.15-.63-.15-.96s.05-.65.15-.97c.1-.32.25-.6.45-.85.2-.25.46-.46.76-.61.31-.15.67-.23,1.08-.23.32,0,.6.04.83.12s.43.19.58.31c.16.13.28.26.38.41s.17.28.22.41.09.27.13.43h-.54c-.04-.16-.09-.3-.15-.42s-.15-.24-.26-.36c-.12-.12-.27-.22-.46-.29-.19-.08-.43-.12-.71-.12-.32,0-.6.06-.84.18-.24.12-.44.28-.6.49-.16.21-.28.44-.35.69-.08.25-.12.51-.12.78s.04.54.12.8c.08.26.2.49.35.69s.35.37.59.49c.24.12.51.18.82.18.36,0,.66-.07.92-.22.25-.15.45-.35.58-.62s.2-.57.2-.92h-1.62v-.45h2.14v.35c0,.49-.09.91-.28,1.26s-.45.62-.78.81c-.33.19-.72.28-1.16.28ZM9.69,148.06c-.11,0-.19-.04-.26-.11-.07-.07-.1-.16-.1-.26,0-.1.04-.19.1-.26.07-.07.16-.11.26-.11s.19.04.26.11c.07.07.11.16.11.26s-.04.19-.11.26c-.07.07-.16.11-.26.11ZM9.43,152.46v-3.69h.52v3.69h-.52ZM12.68,148.7c.26,0,.47.04.63.13.17.09.3.19.4.3.1.12.17.22.22.3h.04v-.66h.52v3.69h-.52v-.66h-.04c-.05.09-.12.19-.22.3-.1.11-.23.21-.4.3-.17.09-.38.13-.63.13-.28,0-.52-.05-.73-.16-.21-.11-.38-.26-.52-.44-.14-.18-.24-.39-.31-.62s-.1-.46-.1-.7.03-.47.1-.7.17-.43.31-.62c.14-.18.31-.33.52-.44s.45-.16.73-.16ZM12.76,149.15c-.27,0-.5.07-.68.22-.18.14-.32.33-.4.55-.09.22-.13.46-.13.7s.04.47.13.7c.09.22.22.41.4.55.18.14.41.22.68.22s.49-.07.67-.22.31-.33.4-.55c.09-.22.14-.46.14-.7s-.05-.47-.14-.7c-.09-.22-.23-.41-.4-.55-.18-.14-.4-.22-.67-.22ZM12.61,148.26v-.22s0-.08.02-.12c.02-.04.05-.07.09-.1l.1-.04c.21-.11.32-.23.32-.38,0-.06-.03-.13-.08-.18-.05-.06-.13-.09-.25-.09-.14,0-.23.04-.27.12-.04.08-.06.14-.06.2h-.38c0-.17.06-.32.17-.45.11-.13.29-.19.53-.19.22,0,.39.06.52.17.13.12.19.26.19.42,0,.12-.04.24-.13.35s-.22.21-.42.3h-.02v.23h-.36ZM15.88,148.06c-.11,0-.19-.04-.26-.11-.07-.07-.1-.16-.1-.26,0-.1.04-.19.1-.26.07-.07.16-.11.26-.11s.19.04.26.11c.07.07.11.16.11.26s-.04.19-.11.26c-.07.07-.16.11-.26.11ZM15.62,152.46v-3.69h.52v3.69h-.52ZM18.92,153.82v-5.05h.52v.66h.03c.05-.09.13-.19.23-.3.1-.11.23-.21.4-.3.17-.09.38-.13.63-.13.28,0,.52.05.73.16s.38.25.52.44.24.39.31.62c.07.23.1.46.1.7s-.04.47-.1.7c-.07.23-.17.43-.31.62-.14.18-.31.33-.52.44-.21.11-.45.16-.73.16-.26,0-.47-.04-.63-.13-.17-.08-.3-.19-.4-.3-.1-.12-.17-.22-.23-.3h-.03v2.03h-.52ZM19.45,150.61c0,.24.04.47.13.7.09.22.22.41.4.55s.41.22.68.22.5-.07.68-.22.31-.33.4-.55c.09-.22.14-.46.14-.7s-.04-.47-.14-.7c-.09-.22-.23-.41-.4-.55-.18-.14-.4-.22-.68-.22s-.49.07-.68.22c-.18.14-.32.33-.4.55-.09.22-.13.46-.13.7ZM23.41,152.46v-5.29h.52v2.21h.03c.03-.07.09-.16.17-.27.08-.11.2-.21.35-.29.15-.08.34-.13.57-.13.27,0,.5.06.69.19.19.12.34.29.44.51.1.21.15.46.15.72v2.34h-.52v-2.31c0-.28-.08-.52-.23-.71-.15-.19-.37-.28-.66-.28-.24,0-.43.06-.57.18-.15.12-.25.28-.32.47-.07.19-.1.38-.1.58v2.07h-.52ZM29.01,148.7c.26,0,.47.04.63.13.17.09.3.19.4.3.1.12.17.22.22.3h.04v-.66h.52v3.69h-.52v-.66h-.04c-.05.09-.12.19-.22.3-.1.11-.23.21-.4.3-.17.09-.38.13-.63.13-.28,0-.52-.05-.73-.16-.21-.11-.38-.26-.52-.44-.14-.18-.24-.39-.31-.62s-.1-.46-.1-.7.03-.47.1-.7.17-.43.31-.62c.14-.18.31-.33.52-.44s.45-.16.73-.16ZM29.08,149.15c-.27,0-.5.07-.68.22-.18.14-.32.33-.4.55-.09.22-.13.46-.13.7s.04.47.13.7c.09.22.22.41.4.55.18.14.41.22.68.22s.49-.07.67-.22.31-.33.4-.55c.09-.22.14-.46.14-.7s-.05-.47-.14-.7c-.09-.22-.23-.41-.4-.55-.18-.14-.4-.22-.67-.22ZM29.35,148.19h-.45l.59-1.19h.55l-.69,1.19ZM31.92,153.82v-5.05h.52v.66h.03c.05-.09.13-.19.23-.3.1-.11.23-.21.4-.3.17-.09.38-.13.63-.13.28,0,.52.05.73.16s.38.25.52.44.24.39.31.62c.07.23.1.46.1.7s-.04.47-.1.7c-.07.23-.17.43-.31.62-.14.18-.31.33-.52.44-.21.11-.45.16-.73.16-.26,0-.47-.04-.63-.13-.17-.08-.3-.19-.4-.3-.1-.12-.17-.22-.23-.3h-.03v2.03h-.52ZM32.45,150.61c0,.24.04.47.13.7.09.22.22.41.4.55s.41.22.68.22.5-.07.68-.22.31-.33.4-.55c.09-.22.14-.46.14-.7s-.04-.47-.14-.7c-.09-.22-.23-.41-.4-.55-.18-.14-.4-.22-.68-.22s-.49.07-.68.22c-.18.14-.32.33-.4.55-.09.22-.13.46-.13.7ZM40.82,153.82v-2.02h-.04c-.05.09-.12.19-.22.3-.1.11-.23.21-.4.3-.17.09-.38.13-.63.13-.28,0-.52-.05-.73-.16-.21-.11-.38-.26-.52-.44-.14-.18-.24-.39-.31-.62-.07-.23-.1-.46-.1-.7s.03-.47.1-.7c.07-.23.17-.43.31-.62s.31-.33.52-.44c.21-.11.45-.16.73-.16.25,0,.47.04.63.13s.3.19.4.3c.1.12.17.22.22.3h.04v-.66h.52v5.05h-.52ZM39.6,152.08c.27,0,.49-.07.67-.22.18-.14.31-.33.4-.55.09-.22.14-.46.14-.7s-.05-.47-.14-.7c-.09-.22-.23-.41-.4-.55-.18-.14-.4-.22-.67-.22s-.5.07-.68.22c-.18.14-.32.33-.4.55-.09.22-.13.46-.13.7s.04.47.13.7c.09.22.22.41.4.55.18.14.41.22.68.22ZM43.65,152.53c-.37,0-.66-.12-.88-.35-.22-.24-.33-.57-.33-.99v-2.42h.52v2.39c0,.29.07.51.22.67.14.16.34.24.59.24s.44-.07.59-.2c.15-.13.26-.3.32-.5.07-.2.1-.41.1-.63v-1.97h.52v3.69h-.52v-.61h-.03c-.03.06-.09.15-.17.26s-.2.21-.35.29c-.15.08-.34.12-.58.12ZM47.97,148.7c.26,0,.47.04.63.13.17.09.3.19.4.3.1.12.17.22.22.3h.04v-.66h.52v3.69h-.52v-.66h-.04c-.05.09-.12.19-.22.3-.1.11-.23.21-.4.3-.17.09-.38.13-.63.13-.28,0-.52-.05-.73-.16-.21-.11-.38-.26-.52-.44-.14-.18-.24-.39-.31-.62s-.1-.46-.1-.7.03-.47.1-.7.17-.43.31-.62c.14-.18.31-.33.52-.44s.45-.16.73-.16ZM48.04,149.15c-.27,0-.5.07-.68.22-.18.14-.32.33-.4.55-.09.22-.13.46-.13.7s.04.47.13.7c.09.22.22.41.4.55.18.14.41.22.68.22s.49-.07.67-.22.31-.33.4-.55c.09-.22.14-.46.14-.7s-.05-.47-.14-.7c-.09-.22-.23-.41-.4-.55-.18-.14-.4-.22-.67-.22ZM47.9,148.26v-.22s0-.08.02-.12c.02-.04.05-.07.09-.1l.1-.04c.21-.11.32-.23.32-.38,0-.06-.03-.13-.08-.18-.05-.06-.13-.09-.25-.09-.14,0-.23.04-.27.12-.04.08-.06.14-.06.2h-.38c0-.17.06-.32.17-.45.11-.13.29-.19.53-.19.22,0,.39.06.52.17.13.12.19.26.19.42,0,.12-.04.24-.13.35s-.22.21-.42.3h-.02v.23h-.36ZM50.82,152.46v-3.69h.52v.61h.03c.03-.07.09-.16.17-.27.08-.11.2-.21.35-.29.15-.08.34-.13.56-.13.27,0,.51.06.7.19.19.12.34.29.44.51.1.21.15.46.15.72v2.34h-.52v-2.31c0-.28-.08-.52-.23-.71-.15-.19-.37-.28-.66-.28-.23,0-.42.06-.57.18-.15.12-.25.28-.32.47-.07.19-.1.38-.1.58v2.07h-.52ZM56.44,152.46v-5.29h.52v5.29h-.52ZM58.16,153.82c-.1,0-.21,0-.35-.02v-.45c.14.01.26.02.34.02.28,0,.52-.07.7-.21.18-.14.34-.36.46-.65l-1.44-3.73h.54l1.16,3.06,1.16-3.06h.55l-1.48,3.78c-.17.43-.39.75-.65.96-.27.21-.6.31-.99.31ZM59.74,148.19h-.45l.59-1.19h.55l-.69,1.19ZM65.25,152.53c-.28,0-.52-.05-.73-.16-.21-.11-.38-.26-.52-.44-.14-.18-.24-.39-.31-.62-.07-.23-.1-.46-.1-.7s.03-.47.1-.7c.07-.23.17-.43.31-.62s.31-.33.52-.44c.21-.11.45-.16.73-.16.25,0,.47.04.63.13s.3.19.4.3c.1.12.17.22.22.3h.04v-2.26h.52v5.29h-.52v-.66h-.04c-.05.09-.12.19-.22.3-.1.11-.23.21-.4.3-.17.09-.38.13-.63.13ZM65.33,152.08c.27,0,.49-.07.67-.22.18-.14.31-.33.4-.55.09-.22.14-.46.14-.7s-.05-.47-.14-.7c-.09-.22-.23-.41-.4-.55-.18-.14-.4-.22-.67-.22s-.5.07-.68.22c-.18.14-.32.33-.4.55-.09.22-.13.46-.13.7s.04.47.13.7c.09.22.22.41.4.55.18.14.41.22.68.22ZM68.54,153.96c-.12,0-.21-.04-.28-.12-.07-.08-.11-.17-.11-.27s.04-.2.11-.27c.07-.07.17-.11.28-.11.11,0,.2.04.27.11s.12.17.12.27-.04.2-.12.28-.17.11-.27.11ZM68.54,148.06c-.11,0-.19-.04-.26-.11-.07-.07-.1-.16-.1-.26,0-.1.04-.19.1-.26.07-.07.16-.11.26-.11s.19.04.26.11c.07.07.11.16.11.26s-.04.19-.11.26c-.07.07-.16.11-.26.11ZM68.28,152.46v-3.69h.52v3.69h-.52ZM71.65,152.53c-.3,0-.56-.05-.78-.16-.23-.11-.41-.26-.56-.44-.15-.18-.26-.39-.33-.62s-.11-.46-.11-.7.04-.47.11-.7.19-.43.33-.62c.15-.18.33-.33.56-.44s.48-.16.79-.16.53.04.72.13.34.19.46.32.2.26.26.39c.06.13.11.28.15.45h-.51c-.05-.17-.11-.3-.18-.41-.07-.11-.18-.21-.32-.29-.14-.08-.33-.12-.57-.12-.28,0-.52.07-.71.21-.19.14-.33.32-.42.54s-.14.46-.14.71.05.48.14.7.24.4.42.54c.19.14.42.21.71.21.24,0,.43-.04.57-.13.14-.08.25-.18.32-.29.07-.11.13-.25.18-.42h.51c-.04.17-.09.32-.15.45-.06.13-.15.26-.26.39s-.27.24-.46.32c-.19.09-.43.13-.72.13ZM74.25,152.46v-5.29h.52v2.21h.03c.03-.07.09-.16.17-.27.08-.11.2-.21.35-.29.15-.08.34-.13.57-.13.27,0,.5.06.69.19.19.12.34.29.44.51.1.21.15.46.15.72v2.34h-.52v-2.31c0-.28-.08-.52-.23-.71-.15-.19-.37-.28-.66-.28-.24,0-.43.06-.57.18-.15.12-.25.28-.32.47-.07.19-.1.38-.1.58v2.07h-.52ZM80.97,152.46l-1.43-3.69h.54l1.17,3.06,1.15-3.06h.55l-1.43,3.69h-.56ZM85,152.53c-.37,0-.66-.12-.88-.35-.22-.24-.33-.57-.33-.99v-2.42h.52v2.39c0,.29.07.51.22.67.14.16.34.24.59.24s.44-.07.59-.2c.15-.13.26-.3.32-.5.07-.2.1-.41.1-.63v-1.97h.52v3.69h-.52v-.61h-.03c-.03.06-.09.15-.17.26-.08.11-.2.21-.35.29s-.34.12-.58.12ZM85.21,153.96c-.11,0-.2-.04-.27-.12-.07-.08-.11-.17-.11-.27s.04-.2.11-.27c.07-.07.16-.11.27-.11s.2.04.28.11.11.17.11.27-.04.2-.11.28-.17.11-.28.11ZM90.81,152.53c-.34,0-.6-.09-.78-.26-.18-.18-.26-.42-.26-.74v-2.32h-.67v-.43h.67v-.93h.52v.93h.91v.43h-.91v2.32c0,.37.2.56.6.56.1,0,.25-.02.44-.06v.45c-.21.04-.38.06-.51.06ZM92.29,152.46v-5.29h.52v2.21h.04c.03-.07.09-.16.17-.27.08-.11.2-.21.35-.29.15-.08.34-.13.57-.13.27,0,.5.06.69.19.19.12.34.29.44.51.1.21.15.46.15.72v2.34h-.52v-2.31c0-.28-.08-.52-.23-.71-.15-.19-.37-.28-.66-.28-.24,0-.43.06-.57.18-.15.12-.25.28-.32.47-.07.19-.1.38-.1.58v2.07h-.52ZM97.54,152.53c-.37,0-.66-.12-.88-.35-.22-.24-.33-.57-.33-.99v-2.42h.52v2.39c0,.29.07.51.22.67.14.16.34.24.59.24s.44-.07.59-.2c.15-.13.26-.3.32-.5.07-.2.1-.41.1-.63v-1.97h.52v3.69h-.52v-.61h-.03c-.03.06-.09.15-.17.26-.08.11-.2.21-.35.29s-.34.12-.58.12ZM98,148.19h-.46l.6-1.19h.55l-.69,1.19ZM101.98,153.82c-.1,0-.22,0-.35-.02v-.45c.14.01.25.02.33.02.28,0,.52-.07.7-.21.19-.14.34-.36.46-.65l-1.44-3.73h.54l1.16,3.06,1.16-3.06h.55l-1.48,3.78c-.17.43-.39.75-.66.96-.27.21-.6.31-.99.31ZM109.16,152.53c-.3,0-.56-.05-.78-.16-.22-.11-.41-.26-.56-.44-.15-.18-.26-.39-.33-.62s-.11-.46-.11-.7.04-.47.11-.7.19-.43.33-.62.33-.33.56-.44c.22-.11.48-.16.79-.16s.53.04.72.13c.19.09.34.19.46.32s.2.26.26.39.11.28.15.45h-.51c-.05-.17-.11-.3-.18-.41-.07-.11-.18-.21-.32-.29-.14-.08-.33-.12-.57-.12-.28,0-.52.07-.71.21-.19.14-.33.32-.42.54-.1.22-.14.46-.14.71s.05.48.14.7c.09.22.24.4.42.54.19.14.42.21.71.21.24,0,.43-.04.57-.13.14-.08.25-.18.32-.29.07-.11.13-.25.18-.42h.51c-.04.17-.09.32-.15.45-.06.13-.15.26-.26.39s-.27.24-.46.32c-.19.09-.43.13-.72.13ZM111.76,152.46v-5.29h.52v2.21h.04c.03-.07.09-.16.17-.27.08-.11.2-.21.35-.29.15-.08.34-.13.57-.13.27,0,.5.06.69.19.19.12.34.29.44.51.1.21.15.46.15.72v2.34h-.52v-2.31c0-.28-.08-.52-.23-.71-.15-.19-.37-.28-.66-.28-.24,0-.43.06-.57.18-.15.12-.25.28-.32.47-.07.19-.1.38-.1.58v2.07h-.52ZM116.94,152.53c-.37,0-.66-.12-.88-.35-.22-.24-.33-.57-.33-.99v-2.42h.52v2.39c0,.29.07.51.22.67.14.16.34.24.59.24s.44-.07.59-.2c.15-.13.26-.3.32-.5.07-.2.1-.41.1-.63v-1.97h.52v3.69h-.52v-.61h-.03c-.03.06-.09.15-.17.26-.08.11-.2.21-.35.29s-.34.12-.58.12ZM119.71,153.82c-.1,0-.22,0-.35-.02v-.45c.14.01.25.02.33.02.28,0,.52-.07.7-.21.19-.14.34-.36.46-.65l-1.44-3.73h.54l1.16,3.06,1.16-3.06h.55l-1.48,3.78c-.17.43-.39.75-.66.96-.27.21-.6.31-.99.31ZM125.03,152.53c-.3,0-.55-.05-.77-.16-.22-.11-.4-.26-.54-.44-.14-.19-.24-.39-.31-.62-.07-.23-.1-.46-.1-.69s.03-.46.1-.69.17-.43.31-.62c.14-.19.31-.33.53-.44.21-.11.46-.16.75-.16.31,0,.58.07.82.22.24.14.43.36.56.64.14.28.21.63.21,1.05v.15h-2.75c0,.24.06.46.16.66.09.2.23.36.4.48.17.12.38.18.63.18.2,0,.37-.04.51-.11.13-.07.24-.16.31-.25.07-.1.14-.21.2-.35h.5c-.05.15-.1.29-.16.4-.06.12-.15.23-.26.35-.11.12-.26.21-.43.29-.18.08-.39.12-.65.12ZM123.85,150.34h2.22c-.01-.28-.07-.51-.17-.69-.1-.17-.23-.3-.39-.38-.16-.08-.33-.12-.51-.12-.33,0-.6.11-.8.32s-.32.5-.35.86ZM123.96,148.24l.82-1.13h.46l.82,1.13h-.49l-.56-.79-.56.79h-.49ZM127.58,152.46v-3.69h.52v.61h.04c.03-.07.09-.16.17-.27.08-.11.2-.21.35-.29.15-.08.34-.13.56-.13.27,0,.51.06.7.19.19.12.33.29.44.51.1.21.15.46.15.72v2.34h-.52v-2.31c0-.28-.08-.52-.23-.71-.15-.19-.37-.28-.67-.28-.23,0-.42.06-.57.18-.15.12-.25.28-.32.47-.07.19-.1.38-.1.58v2.07h-.52ZM133.14,152.46v-3.69h.52v.61h.04c.03-.07.09-.16.17-.27.08-.11.2-.21.35-.29.15-.08.34-.13.56-.13.27,0,.51.06.7.19.19.12.33.29.44.51.1.21.15.46.15.72v2.34h-.52v-2.31c0-.28-.08-.52-.23-.71-.15-.19-.37-.28-.67-.28-.23,0-.42.06-.57.18-.15.12-.25.28-.32.47-.07.19-.1.38-.1.58v2.07h-.52ZM138.85,153.92c-.3,0-.55-.04-.75-.12-.2-.08-.36-.18-.48-.3-.12-.12-.21-.24-.26-.36-.06-.12-.11-.26-.14-.42h.52c.05.15.11.27.18.37.07.1.18.18.33.26.15.07.35.11.6.11.3,0,.54-.06.7-.18.17-.12.28-.27.35-.46s.1-.37.1-.56v-.51h-.03c-.05.08-.12.17-.22.29-.1.11-.24.21-.41.3-.17.08-.39.12-.64.12-.28,0-.52-.05-.73-.16-.21-.11-.38-.25-.52-.43-.14-.18-.24-.38-.31-.61s-.1-.45-.1-.69.03-.46.1-.68c.07-.22.17-.42.31-.61.14-.18.31-.32.52-.43.21-.11.45-.16.73-.16.25,0,.47.04.64.13.17.08.31.18.41.3.1.11.18.21.22.29h.03v-.64h.52v3.49c0,.52-.15.93-.44,1.22-.29.29-.7.44-1.23.44ZM138.78,152.01c.27,0,.49-.07.68-.21.18-.14.32-.32.41-.54s.14-.45.14-.69-.04-.47-.14-.69-.23-.39-.4-.53c-.18-.14-.4-.21-.67-.21s-.5.07-.68.21c-.18.14-.32.32-.4.54-.09.22-.13.45-.13.68s.04.47.13.69c.09.22.22.4.4.54.18.14.41.21.67.21ZM141.6,152.46v-5.29h.52v2.21h.04c.03-.07.09-.16.17-.27.08-.11.2-.21.35-.29.15-.08.34-.13.57-.13.27,0,.5.06.69.19.19.12.34.29.44.51.1.21.15.46.15.72v2.34h-.52v-2.31c0-.28-.08-.52-.23-.71-.15-.19-.37-.28-.66-.28-.24,0-.43.06-.57.18-.15.12-.25.28-.32.47-.07.19-.1.38-.1.58v2.07h-.52ZM145.92,148.06c-.11,0-.2-.04-.26-.11s-.1-.16-.1-.26c0-.1.04-.19.1-.26.07-.07.16-.11.26-.11s.19.04.26.11.11.16.11.26-.04.19-.11.26c-.07.07-.16.11-.26.11ZM145.66,152.46v-3.69h.52v3.69h-.52ZM148.97,152.53c-.3,0-.55-.05-.77-.16-.22-.11-.4-.26-.54-.44-.14-.19-.24-.39-.31-.62-.07-.23-.1-.46-.1-.69s.03-.46.1-.69.17-.43.31-.62c.14-.19.31-.33.53-.44.21-.11.46-.16.75-.16.31,0,.58.07.82.22.24.14.43.36.56.64.14.28.21.63.21,1.05v.15h-2.75c0,.24.06.46.16.66.09.2.23.36.4.48.17.12.38.18.63.18.2,0,.37-.04.51-.11.13-.07.24-.16.31-.25.07-.1.14-.21.2-.35h.5c-.05.15-.1.29-.16.4-.06.12-.15.23-.26.35-.11.12-.26.21-.43.29-.18.08-.39.12-.65.12ZM147.79,150.34h2.22c-.01-.28-.07-.51-.17-.69-.1-.17-.23-.3-.39-.38-.16-.08-.33-.12-.51-.12-.33,0-.6.11-.8.32s-.32.5-.35.86ZM147.89,148.24l.82-1.13h.46l.82,1.13h-.49l-.56-.79-.56.79h-.49ZM148.93,153.96c-.11,0-.2-.04-.28-.12-.07-.08-.11-.17-.11-.27s.04-.2.11-.27c.07-.07.16-.11.28-.11s.2.04.28.11.11.17.11.27-.04.2-.11.28-.17.11-.28.11ZM151.57,153.82v-5.05h.52v.66h.04c.05-.09.13-.19.23-.3.1-.11.23-.21.4-.3s.38-.13.63-.13c.28,0,.52.05.73.16s.38.25.52.44.24.39.31.62c.07.23.1.46.1.7s-.03.47-.1.7c-.07.23-.17.43-.31.62-.14.18-.31.33-.52.44-.21.11-.45.16-.73.16-.25,0-.47-.04-.63-.13-.17-.08-.3-.19-.4-.3-.1-.12-.18-.22-.23-.3h-.04v2.03h-.52ZM152.1,150.61c0,.24.04.47.13.7s.22.41.4.55c.18.14.41.22.68.22s.5-.07.68-.22.31-.33.4-.55c.09-.22.14-.46.14-.7s-.05-.47-.14-.7c-.09-.22-.23-.41-.4-.55-.18-.14-.41-.22-.68-.22s-.49.07-.68.22c-.18.14-.32.33-.4.55s-.13.46-.13.7Z"/>
  <path class="st2" d="M122.86,24.67s-3.26,8.13-5.25,13.22c.29-4.17.45-11.34.63-13.17.21-2.18,3.88-3.18,4.62-.05ZM115.55,42.28l1.33-3.03.23-10.17c-1.87.01-2.82,1.75-2.6,4.45.18,2.19,1.04,8.75,1.04,8.75ZM114.86,43.24l-.98-8.07c-.54.14-1.96,1.02-2.21,4.22-.25,3.2,2.17,5.99,2.17,5.99l1.02-2.14Z"/>
  <path class="st0" d="M62.17,81.36s-.1-3.91-.1,9.63,9.83,11.14,23.47,11.14,11.14-10.33,11.03-20.06c-.1-9.73,4.14-7.43,13.93-14.54,10.29-7.47,14.77-15.57,17.32-21.67s6.4-22.7,5.67-23.48c-.83-.89-1.98-1.17-3.19-1.13-6,.18-7.76,16.91-16.61,28.9-4.57,6.19-11.9,12.15-27.03,13.71,6.35-3.06,16.83-12.39,18.79-17.29,1.96-4.89.85-8.85-1.61-9s-1.25,3.76-10.99,9.16c-7.2,3.99-19.65,1.55-32.99,12.14-8.15,6.47-7.65,15.46-19.16,15.47-5.51,0-7.02-4.21-7.02-4.21-1.38-3.06-.94-14.17-.8-18.44s-.14-9.25,9.54-9.25h19.5v-25.86s.03-8.57,11.61-8.57h14.46c4.61,0,8.9,1.83,8.9,8.88v12.24"/>
  <path class="st4" d="M75.67,104.1c-5.2,0-9.36-.5-12.17-3.24-2.16-2.1-3.2-5.31-3.2-9.82,0-3.83,0-6.63.02-8.32,0-.75.02-1.23.02-1.51.05-1.85,1.24-2.07,1.74-2.08.19,0,1.71.03,1.79,1.93,0,.15,0,.29,0,.29,0,.18-.02.36-.07.52-.02,1.09-.03,3.57-.03,9.17,0,3.52.7,5.91,2.15,7.33,2.53,2.47,7.67,2.34,14.17,2.17,1.74-.04,3.55-.09,5.45-.09,3.57,0,6.02-.74,7.47-2.25,2.37-2.48,2.17-7.18,1.96-12.17-.05-1.28-.11-2.6-.12-3.91-.08-7.43,2.3-8.98,7.26-11.54,1.98-1.02,4.44-2.29,7.41-4.45,10.29-7.47,14.49-15.54,16.76-20.96,2.4-5.74,5.41-18.96,5.63-21.96-.3-.16-.75-.3-1.48-.27-2.14.06-4.27,5.41-6.34,10.58-2.14,5.36-4.8,12.03-8.94,17.65-8.24,11.17-20.09,13.59-28.29,14.43-.84.09-1.63-.44-1.86-1.26-.23-.82.16-1.68.92-2.05,6.2-2.98,16.26-12.17,17.95-16.39,1.17-2.91,1.05-5.23.41-6.24-.2-.31-.37-.37-.46-.38-.15.16-.4.52-.61.82-1.21,1.75-3.24,4.67-9.49,8.13-2.88,1.6-6.32,2.22-10.3,2.94-6.73,1.21-14.35,2.59-22.5,9.06-2.76,2.19-4.46,4.71-6.11,7.14-3.04,4.49-5.91,8.72-14.16,8.73h-.01c-6.29,0-8.35-4.59-8.63-5.29-1.28-2.94-1.22-10.67-.95-18.59l.04-1.14c.12-4.15.29-10.42,11.28-10.42h17.78v-24.15c0-.11.19-10.33,13.38-10.33h14.49c6.87,0,10.66,3.78,10.66,10.64v12.26c0,.96-.78,1.74-1.74,1.74s-1.74-.78-1.74-1.74v-12.26c0-4.95-2.21-7.15-7.17-7.15h-14.49c-9.47,0-9.87,6.16-9.89,6.86v25.87c0,.96-.78,1.74-1.74,1.74h-19.52c-7.6,0-7.68,2.95-7.8,7.03l-.04,1.16c-.12,3.59-.48,14.53.67,17.09.02.04.04.08.05.13.11.3,1.3,3.06,5.38,3.06h0c6.41,0,8.45-3.02,11.28-7.2,1.71-2.52,3.65-5.39,6.83-7.91,8.83-7.01,17.27-8.54,24.05-9.76,3.68-.66,6.86-1.24,9.23-2.55,5.54-3.07,7.28-5.57,8.32-7.07.79-1.14,1.69-2.43,3.64-2.32,1.32.08,2.48.79,3.24,2,1.4,2.21,1.36,5.73-.12,9.4-1.48,3.69-6.9,9.23-12.29,13.43,9.9-2.67,14.67-7.67,17.52-11.54,3.88-5.26,6.34-11.43,8.51-16.87,2.82-7.07,5.04-12.65,9.47-12.78,1.91-.05,3.43.51,4.52,1.69.62.67,1.2,1.29-1.15,11.25-1.07,4.54-2.74,10.63-4.2,14.13-2.43,5.81-6.93,14.45-17.93,22.44-3.19,2.32-5.78,3.65-7.86,4.73-4.28,2.21-5.43,2.8-5.37,8.41.01,1.25.07,2.55.12,3.8.23,5.49.48,11.18-2.93,14.73-2.15,2.24-5.41,3.33-9.99,3.33-1.86,0-3.64.04-5.36.09-1.58.04-3.09.08-4.52.08ZM131.92,22.77h0s0,0,0,0ZM118.24,24.72c-.18,1.83-.35,9-.63,13.17,1.99-5.09,5.25-13.22,5.25-13.22-.74-3.12-4.41-2.13-4.62.05ZM114.5,33.53c.18,2.19,1.04,8.75,1.04,8.75l1.33-3.03.23-10.17c-1.87.01-2.82,1.75-2.6,4.45ZM111.67,39.39c-.25,3.2,2.17,5.99,2.17,5.99l1.02-2.14-.98-8.07c-.54.14-1.96,1.03-2.21,4.22Z"/>
  <path class="st2" d="M83.48,24.15c-1.85-2.79-5.31-3.58-7.79-1.03-.38.39-.85,1.43-1.1,1.63s-.75.26-1.1.46c-3.75,2.1-1.78,8.01,2.85,7.13.9-.17,1.24-.81,1.91-1.07,1.77-.71,2.18.92,3.74,1.12,4.24.56,6.28-4.63,2.95-6.97-.31-.22-1.11-.5-1.18-.57-.1-.11-.15-.49-.28-.69ZM79.94,15.31c-1.23,1.99-.14,5.48,2.54,5.14,3.36-.43,2.92-7.25-1-6.45-.51.11-1.27.86-1.55,1.31ZM73.48,17.8c.24,2.37,2.92,3.76,4.54,1.69,2.16-2.76-.73-7.25-3.43-4.92-1.01.87-1.25,1.9-1.11,3.23ZM71.14,24.68c3.91.78,4.34-6.84-.16-6.01-2.68.5-2.75,5.43.16,6.01ZM84.16,21.21c-.27,2.19,1.86,4.52,3.98,3.07,2.55-1.74,1.25-6.27-1.97-5.61-1.08.22-1.88,1.5-2.01,2.53Z"/>
</svg>